<svg width="20" height="21" viewBox="0 0 20 21" fill="none" xmlns="http://www.w3.org/2000/svg">
<path d="M17.2738 0.5H2.60971C1.86408 0.5 1.24272 0.75 0.745631 1.25C0.248544 1.75 0 2.375 0 3.125V18C0 18.625 0.248544 19.375 0.745631 19.875C1.24272 20.25 1.86408 20.5 2.60971 20.5H17.3981C18.0194 20.5 18.765 20.25 19.2621 19.75C19.7592 19.25 20.0078 18.625 20.0078 17.875V3.125C20.0078 2.5 19.7592 1.75 19.2621 1.25C18.765 0.75 18.0194 0.5 17.2738 0.5ZM16.901 7.875L9.07184 15.75C8.8233 16 8.57476 16 8.32621 15.75L8.20194 15.625L8.07767 15.5L7.33204 14.75L3.85243 11.25C3.60388 11 3.60388 10.75 3.85243 10.5L4.97087 9.375C4.97087 9.375 5.09515 9.25 5.21942 9.25C5.34369 9.25 5.46796 9.25 5.59223 9.375L8.69903 12.5L15.1612 6C15.2854 5.875 15.4097 5.875 15.534 5.875C15.6583 5.875 15.7825 5.875 15.9068 6L17.0252 7.125C17.0252 7.375 17.0252 7.625 16.901 7.875Z" fill="url(#paint0_linear_116_5637)"/>
<defs>
<linearGradient id="paint0_linear_116_5637" x1="3.95315" y1="1.95161" x2="17.097" y2="18.892" gradientUnits="userSpaceOnUse">
<stop stop-color="#A73EE7"/>
<stop offset="1" stop-color="#00EBFF"/>
</linearGradient>
</defs>
</svg>
