<svg width="757" height="117" viewBox="0 0 757 117" fill="none" xmlns="http://www.w3.org/2000/svg">
<path d="M189.188 1.59766H217.131C223.217 1.59766 227.769 3.04492 230.787 5.93945C233.83 8.83398 235.352 12.9531 235.352 18.2969C235.352 23.7891 233.694 28.0814 230.379 31.1738C227.089 34.2663 222.054 35.8125 215.275 35.8125H206.072V56H189.188V1.59766ZM206.072 24.791H210.191C213.432 24.791 215.708 24.2344 217.02 23.1211C218.331 21.9831 218.986 20.5358 218.986 18.7793C218.986 17.0723 218.417 15.625 217.279 14.4375C216.141 13.25 214.001 12.6562 210.859 12.6562H206.072V24.791ZM256.949 29.3555L242.514 27.834C243.058 25.3105 243.837 23.3314 244.852 21.8965C245.891 20.4368 247.375 19.1751 249.305 18.1113C250.69 17.3444 252.595 16.7507 255.02 16.3301C257.444 15.9095 260.066 15.6992 262.887 15.6992C267.414 15.6992 271.051 15.959 273.797 16.4785C276.543 16.9733 278.831 18.0247 280.662 19.6328C281.949 20.7461 282.963 22.3294 283.705 24.3828C284.447 26.4115 284.818 28.3535 284.818 30.209V47.6133C284.818 49.4688 284.93 50.9284 285.152 51.9922C285.4 53.0312 285.919 54.3672 286.711 56H272.535C271.966 54.9857 271.595 54.2188 271.422 53.6992C271.249 53.1549 271.076 52.3138 270.902 51.1758C268.923 53.0807 266.956 54.4414 265.002 55.2578C262.33 56.3464 259.225 56.8906 255.688 56.8906C250.987 56.8906 247.412 55.8021 244.963 53.625C242.538 51.4479 241.326 48.7637 241.326 45.5723C241.326 42.5788 242.204 40.1172 243.961 38.1875C245.717 36.2578 248.958 34.8229 253.684 33.8828C259.349 32.7448 263.023 31.9531 264.705 31.5078C266.387 31.0378 268.169 30.4316 270.049 29.6895C270.049 27.834 269.665 26.5352 268.898 25.793C268.132 25.0508 266.783 24.6797 264.854 24.6797C262.38 24.6797 260.524 25.0755 259.287 25.8672C258.322 26.4857 257.543 27.6484 256.949 29.3555ZM270.049 37.2969C267.971 38.0391 265.806 38.6947 263.555 39.2637C260.487 40.0801 258.545 40.8841 257.729 41.6758C256.887 42.4922 256.467 43.4199 256.467 44.459C256.467 45.6465 256.875 46.6237 257.691 47.3906C258.533 48.1328 259.757 48.5039 261.365 48.5039C263.048 48.5039 264.606 48.0957 266.041 47.2793C267.501 46.4629 268.527 45.4733 269.121 44.3105C269.74 43.123 270.049 41.5892 270.049 39.709V37.2969ZM291.201 45.0898L306.193 43.6797C306.812 45.4609 307.678 46.735 308.791 47.502C309.904 48.2689 311.389 48.6523 313.244 48.6523C315.273 48.6523 316.844 48.2194 317.957 47.3535C318.823 46.7103 319.256 45.9062 319.256 44.9414C319.256 43.8529 318.687 43.0117 317.549 42.418C316.732 41.9974 314.568 41.4779 311.055 40.8594C305.81 39.944 302.161 39.1029 300.107 38.3359C298.079 37.5443 296.359 36.2207 294.949 34.3652C293.564 32.5098 292.871 30.3945 292.871 28.0195C292.871 25.4219 293.626 23.1829 295.135 21.3027C296.644 19.4225 298.722 18.0247 301.369 17.1094C304.016 16.1693 307.566 15.6992 312.02 15.6992C316.72 15.6992 320.184 16.0579 322.41 16.7754C324.661 17.4928 326.529 18.6061 328.014 20.1152C329.523 21.6243 330.772 23.6654 331.762 26.2383L317.438 27.6484C317.066 26.3867 316.448 25.459 315.582 24.8652C314.395 24.0736 312.96 23.6777 311.277 23.6777C309.57 23.6777 308.321 23.987 307.529 24.6055C306.762 25.1992 306.379 25.929 306.379 26.7949C306.379 27.7598 306.874 28.4896 307.863 28.9844C308.853 29.4792 311.005 29.9245 314.32 30.3203C319.342 30.8893 323.078 31.681 325.527 32.6953C327.977 33.7096 329.844 35.1569 331.131 37.0371C332.442 38.9173 333.098 40.9831 333.098 43.2344C333.098 45.5104 332.405 47.7246 331.02 49.877C329.659 52.0293 327.494 53.7487 324.525 55.0352C321.581 56.2969 317.561 56.9277 312.465 56.9277C305.266 56.9277 300.132 55.901 297.064 53.8477C294.021 51.7943 292.067 48.875 291.201 45.0898ZM337.662 45.0898L352.654 43.6797C353.273 45.4609 354.139 46.735 355.252 47.502C356.365 48.2689 357.85 48.6523 359.705 48.6523C361.734 48.6523 363.305 48.2194 364.418 47.3535C365.284 46.7103 365.717 45.9062 365.717 44.9414C365.717 43.8529 365.148 43.0117 364.01 42.418C363.193 41.9974 361.029 41.4779 357.516 40.8594C352.271 39.944 348.622 39.1029 346.568 38.3359C344.54 37.5443 342.82 36.2207 341.41 34.3652C340.025 32.5098 339.332 30.3945 339.332 28.0195C339.332 25.4219 340.087 23.1829 341.596 21.3027C343.105 19.4225 345.183 18.0247 347.83 17.1094C350.477 16.1693 354.027 15.6992 358.48 15.6992C363.181 15.6992 366.645 16.0579 368.871 16.7754C371.122 17.4928 372.99 18.6061 374.475 20.1152C375.984 21.6243 377.233 23.6654 378.223 26.2383L363.898 27.6484C363.527 26.3867 362.909 25.459 362.043 24.8652C360.855 24.0736 359.421 23.6777 357.738 23.6777C356.031 23.6777 354.782 23.987 353.99 24.6055C353.223 25.1992 352.84 25.929 352.84 26.7949C352.84 27.7598 353.335 28.4896 354.324 28.9844C355.314 29.4792 357.466 29.9245 360.781 30.3203C365.803 30.8893 369.539 31.681 371.988 32.6953C374.438 33.7096 376.305 35.1569 377.592 37.0371C378.903 38.9173 379.559 40.9831 379.559 43.2344C379.559 45.5104 378.866 47.7246 377.48 49.877C376.12 52.0293 373.955 53.7487 370.986 55.0352C368.042 56.2969 364.022 56.9277 358.926 56.9277C351.727 56.9277 346.593 55.901 343.525 53.8477C340.482 51.7943 338.528 48.875 337.662 45.0898ZM440.529 36.2949V24.9766H466.506V48.1699C461.533 51.5592 457.13 53.8724 453.295 55.1094C449.485 56.3216 444.958 56.9277 439.713 56.9277C433.256 56.9277 427.986 55.8268 423.904 53.625C419.847 51.4232 416.693 48.1452 414.441 43.791C412.215 39.4368 411.102 34.4395 411.102 28.7988C411.102 22.8613 412.326 17.7031 414.775 13.3242C417.225 8.92057 420.812 5.58073 425.537 3.30469C429.223 1.54818 434.184 0.669922 440.418 0.669922C446.43 0.669922 450.92 1.21419 453.889 2.30273C456.882 3.39128 459.356 5.08594 461.311 7.38672C463.29 9.66276 464.774 12.5573 465.764 16.0703L449.547 18.9648C448.879 16.9115 447.741 15.3405 446.133 14.252C444.549 13.1634 442.521 12.6191 440.047 12.6191C436.361 12.6191 433.417 13.9056 431.215 16.4785C429.038 19.0267 427.949 23.0716 427.949 28.6133C427.949 34.5013 429.05 38.707 431.252 41.2305C433.479 43.7539 436.571 45.0156 440.529 45.0156C442.41 45.0156 444.203 44.7435 445.91 44.1992C447.617 43.6549 449.572 42.7272 451.773 41.416V36.2949H440.529ZM519.238 40.043H488.957C489.229 42.4674 489.885 44.2734 490.924 45.4609C492.383 47.168 494.288 48.0215 496.639 48.0215C498.123 48.0215 499.533 47.6504 500.869 46.9082C501.686 46.4382 502.564 45.6094 503.504 44.4219L518.385 45.7949C516.109 49.7533 513.363 52.5983 510.146 54.3301C506.93 56.0371 502.316 56.8906 496.305 56.8906C491.085 56.8906 486.978 56.1608 483.984 54.7012C480.991 53.2168 478.505 50.8789 476.525 47.6875C474.571 44.4714 473.594 40.6986 473.594 36.3691C473.594 30.209 475.561 25.224 479.494 21.4141C483.452 17.6042 488.908 15.6992 495.859 15.6992C501.5 15.6992 505.953 16.5527 509.219 18.2598C512.484 19.9668 514.971 22.4408 516.678 25.6816C518.385 28.9225 519.238 33.1406 519.238 38.3359V40.043ZM503.875 32.8066C503.578 29.8874 502.786 27.7969 501.5 26.5352C500.238 25.2734 498.568 24.6426 496.49 24.6426C494.09 24.6426 492.173 25.5951 490.738 27.5C489.823 28.6875 489.242 30.4564 488.994 32.8066H503.875ZM526.178 16.5898H540.242V23.0098C542.345 20.3874 544.473 18.5195 546.625 17.4062C548.777 16.2682 551.4 15.6992 554.492 15.6992C558.673 15.6992 561.939 16.9486 564.289 19.4473C566.664 21.9212 567.852 25.7559 567.852 30.9512V56H552.674V34.3281C552.674 31.8542 552.216 30.11 551.301 29.0957C550.385 28.0566 549.099 27.5371 547.441 27.5371C545.611 27.5371 544.126 28.2298 542.988 29.6152C541.85 31.0007 541.281 33.487 541.281 37.0742V56H526.178V16.5898Z" fill="white" fill-opacity="0.9"/>
<path d="M189.188 1.59766H217.131C223.217 1.59766 227.769 3.04492 230.787 5.93945C233.83 8.83398 235.352 12.9531 235.352 18.2969C235.352 23.7891 233.694 28.0814 230.379 31.1738C227.089 34.2663 222.054 35.8125 215.275 35.8125H206.072V56H189.188V1.59766ZM206.072 24.791H210.191C213.432 24.791 215.708 24.2344 217.02 23.1211C218.331 21.9831 218.986 20.5358 218.986 18.7793C218.986 17.0723 218.417 15.625 217.279 14.4375C216.141 13.25 214.001 12.6562 210.859 12.6562H206.072V24.791ZM256.949 29.3555L242.514 27.834C243.058 25.3105 243.837 23.3314 244.852 21.8965C245.891 20.4368 247.375 19.1751 249.305 18.1113C250.69 17.3444 252.595 16.7507 255.02 16.3301C257.444 15.9095 260.066 15.6992 262.887 15.6992C267.414 15.6992 271.051 15.959 273.797 16.4785C276.543 16.9733 278.831 18.0247 280.662 19.6328C281.949 20.7461 282.963 22.3294 283.705 24.3828C284.447 26.4115 284.818 28.3535 284.818 30.209V47.6133C284.818 49.4688 284.93 50.9284 285.152 51.9922C285.4 53.0312 285.919 54.3672 286.711 56H272.535C271.966 54.9857 271.595 54.2188 271.422 53.6992C271.249 53.1549 271.076 52.3138 270.902 51.1758C268.923 53.0807 266.956 54.4414 265.002 55.2578C262.33 56.3464 259.225 56.8906 255.688 56.8906C250.987 56.8906 247.412 55.8021 244.963 53.625C242.538 51.4479 241.326 48.7637 241.326 45.5723C241.326 42.5788 242.204 40.1172 243.961 38.1875C245.717 36.2578 248.958 34.8229 253.684 33.8828C259.349 32.7448 263.023 31.9531 264.705 31.5078C266.387 31.0378 268.169 30.4316 270.049 29.6895C270.049 27.834 269.665 26.5352 268.898 25.793C268.132 25.0508 266.783 24.6797 264.854 24.6797C262.38 24.6797 260.524 25.0755 259.287 25.8672C258.322 26.4857 257.543 27.6484 256.949 29.3555ZM270.049 37.2969C267.971 38.0391 265.806 38.6947 263.555 39.2637C260.487 40.0801 258.545 40.8841 257.729 41.6758C256.887 42.4922 256.467 43.4199 256.467 44.459C256.467 45.6465 256.875 46.6237 257.691 47.3906C258.533 48.1328 259.757 48.5039 261.365 48.5039C263.048 48.5039 264.606 48.0957 266.041 47.2793C267.501 46.4629 268.527 45.4733 269.121 44.3105C269.74 43.123 270.049 41.5892 270.049 39.709V37.2969ZM291.201 45.0898L306.193 43.6797C306.812 45.4609 307.678 46.735 308.791 47.502C309.904 48.2689 311.389 48.6523 313.244 48.6523C315.273 48.6523 316.844 48.2194 317.957 47.3535C318.823 46.7103 319.256 45.9062 319.256 44.9414C319.256 43.8529 318.687 43.0117 317.549 42.418C316.732 41.9974 314.568 41.4779 311.055 40.8594C305.81 39.944 302.161 39.1029 300.107 38.3359C298.079 37.5443 296.359 36.2207 294.949 34.3652C293.564 32.5098 292.871 30.3945 292.871 28.0195C292.871 25.4219 293.626 23.1829 295.135 21.3027C296.644 19.4225 298.722 18.0247 301.369 17.1094C304.016 16.1693 307.566 15.6992 312.02 15.6992C316.72 15.6992 320.184 16.0579 322.41 16.7754C324.661 17.4928 326.529 18.6061 328.014 20.1152C329.523 21.6243 330.772 23.6654 331.762 26.2383L317.438 27.6484C317.066 26.3867 316.448 25.459 315.582 24.8652C314.395 24.0736 312.96 23.6777 311.277 23.6777C309.57 23.6777 308.321 23.987 307.529 24.6055C306.762 25.1992 306.379 25.929 306.379 26.7949C306.379 27.7598 306.874 28.4896 307.863 28.9844C308.853 29.4792 311.005 29.9245 314.32 30.3203C319.342 30.8893 323.078 31.681 325.527 32.6953C327.977 33.7096 329.844 35.1569 331.131 37.0371C332.442 38.9173 333.098 40.9831 333.098 43.2344C333.098 45.5104 332.405 47.7246 331.02 49.877C329.659 52.0293 327.494 53.7487 324.525 55.0352C321.581 56.2969 317.561 56.9277 312.465 56.9277C305.266 56.9277 300.132 55.901 297.064 53.8477C294.021 51.7943 292.067 48.875 291.201 45.0898ZM337.662 45.0898L352.654 43.6797C353.273 45.4609 354.139 46.735 355.252 47.502C356.365 48.2689 357.85 48.6523 359.705 48.6523C361.734 48.6523 363.305 48.2194 364.418 47.3535C365.284 46.7103 365.717 45.9062 365.717 44.9414C365.717 43.8529 365.148 43.0117 364.01 42.418C363.193 41.9974 361.029 41.4779 357.516 40.8594C352.271 39.944 348.622 39.1029 346.568 38.3359C344.54 37.5443 342.82 36.2207 341.41 34.3652C340.025 32.5098 339.332 30.3945 339.332 28.0195C339.332 25.4219 340.087 23.1829 341.596 21.3027C343.105 19.4225 345.183 18.0247 347.83 17.1094C350.477 16.1693 354.027 15.6992 358.48 15.6992C363.181 15.6992 366.645 16.0579 368.871 16.7754C371.122 17.4928 372.99 18.6061 374.475 20.1152C375.984 21.6243 377.233 23.6654 378.223 26.2383L363.898 27.6484C363.527 26.3867 362.909 25.459 362.043 24.8652C360.855 24.0736 359.421 23.6777 357.738 23.6777C356.031 23.6777 354.782 23.987 353.99 24.6055C353.223 25.1992 352.84 25.929 352.84 26.7949C352.84 27.7598 353.335 28.4896 354.324 28.9844C355.314 29.4792 357.466 29.9245 360.781 30.3203C365.803 30.8893 369.539 31.681 371.988 32.6953C374.438 33.7096 376.305 35.1569 377.592 37.0371C378.903 38.9173 379.559 40.9831 379.559 43.2344C379.559 45.5104 378.866 47.7246 377.48 49.877C376.12 52.0293 373.955 53.7487 370.986 55.0352C368.042 56.2969 364.022 56.9277 358.926 56.9277C351.727 56.9277 346.593 55.901 343.525 53.8477C340.482 51.7943 338.528 48.875 337.662 45.0898ZM440.529 36.2949V24.9766H466.506V48.1699C461.533 51.5592 457.13 53.8724 453.295 55.1094C449.485 56.3216 444.958 56.9277 439.713 56.9277C433.256 56.9277 427.986 55.8268 423.904 53.625C419.847 51.4232 416.693 48.1452 414.441 43.791C412.215 39.4368 411.102 34.4395 411.102 28.7988C411.102 22.8613 412.326 17.7031 414.775 13.3242C417.225 8.92057 420.812 5.58073 425.537 3.30469C429.223 1.54818 434.184 0.669922 440.418 0.669922C446.43 0.669922 450.92 1.21419 453.889 2.30273C456.882 3.39128 459.356 5.08594 461.311 7.38672C463.29 9.66276 464.774 12.5573 465.764 16.0703L449.547 18.9648C448.879 16.9115 447.741 15.3405 446.133 14.252C444.549 13.1634 442.521 12.6191 440.047 12.6191C436.361 12.6191 433.417 13.9056 431.215 16.4785C429.038 19.0267 427.949 23.0716 427.949 28.6133C427.949 34.5013 429.05 38.707 431.252 41.2305C433.479 43.7539 436.571 45.0156 440.529 45.0156C442.41 45.0156 444.203 44.7435 445.91 44.1992C447.617 43.6549 449.572 42.7272 451.773 41.416V36.2949H440.529ZM519.238 40.043H488.957C489.229 42.4674 489.885 44.2734 490.924 45.4609C492.383 47.168 494.288 48.0215 496.639 48.0215C498.123 48.0215 499.533 47.6504 500.869 46.9082C501.686 46.4382 502.564 45.6094 503.504 44.4219L518.385 45.7949C516.109 49.7533 513.363 52.5983 510.146 54.3301C506.93 56.0371 502.316 56.8906 496.305 56.8906C491.085 56.8906 486.978 56.1608 483.984 54.7012C480.991 53.2168 478.505 50.8789 476.525 47.6875C474.571 44.4714 473.594 40.6986 473.594 36.3691C473.594 30.209 475.561 25.224 479.494 21.4141C483.452 17.6042 488.908 15.6992 495.859 15.6992C501.5 15.6992 505.953 16.5527 509.219 18.2598C512.484 19.9668 514.971 22.4408 516.678 25.6816C518.385 28.9225 519.238 33.1406 519.238 38.3359V40.043ZM503.875 32.8066C503.578 29.8874 502.786 27.7969 501.5 26.5352C500.238 25.2734 498.568 24.6426 496.49 24.6426C494.09 24.6426 492.173 25.5951 490.738 27.5C489.823 28.6875 489.242 30.4564 488.994 32.8066H503.875ZM526.178 16.5898H540.242V23.0098C542.345 20.3874 544.473 18.5195 546.625 17.4062C548.777 16.2682 551.4 15.6992 554.492 15.6992C558.673 15.6992 561.939 16.9486 564.289 19.4473C566.664 21.9212 567.852 25.7559 567.852 30.9512V56H552.674V34.3281C552.674 31.8542 552.216 30.11 551.301 29.0957C550.385 28.0566 549.099 27.5371 547.441 27.5371C545.611 27.5371 544.126 28.2298 542.988 29.6152C541.85 31.0007 541.281 33.487 541.281 37.0742V56H526.178V16.5898Z" fill="url(#paint0_linear_722_7463)"/>
<path d="M0.14875 94.864H7.25275C11.3808 94.864 13.4688 96.616 13.4688 100.12C13.4688 103.648 11.3808 105.424 7.20475 105.424H2.95675V112H0.14875V94.864ZM2.95675 97.264V103.024H7.03675C8.28475 103.024 9.19675 102.784 9.77275 102.352C10.3488 101.896 10.6368 101.152 10.6368 100.12C10.6368 99.088 10.3248 98.368 9.74875 97.936C9.17275 97.48 8.26075 97.264 7.03675 97.264H2.95675ZM21.2753 99.256C23.0993 99.256 24.4673 99.712 25.3313 100.624C26.0993 101.416 26.4833 102.568 26.4833 104.08V112H23.9393V110.368C23.4593 110.992 22.8593 111.448 22.1633 111.784C21.3713 112.144 20.4353 112.336 19.3553 112.336C18.0593 112.336 17.0513 112 16.3073 111.352C15.5393 110.68 15.1553 109.84 15.1553 108.808C15.1553 107.416 15.6833 106.336 16.7873 105.592C17.7953 104.872 19.2113 104.488 21.0353 104.44L23.7473 104.368V103.888C23.7473 102.256 22.8593 101.464 21.0833 101.464C20.3153 101.464 19.7153 101.584 19.2593 101.872C18.7313 102.184 18.3713 102.664 18.2273 103.312L15.5153 103.096C15.7793 101.728 16.4513 100.72 17.5313 100.096C18.4433 99.52 19.6913 99.256 21.2753 99.256ZM23.7473 106.336L21.2273 106.408C19.0433 106.456 17.9633 107.224 17.9633 108.712C17.9633 109.144 18.1313 109.504 18.5153 109.792C18.8993 110.08 19.3793 110.248 19.9793 110.248C21.0353 110.248 21.9233 109.936 22.6433 109.336C23.3633 108.712 23.7473 107.92 23.7473 106.96V106.336ZM34.0497 99.256C37.3137 99.256 39.1137 100.552 39.4017 103.192H36.7377C36.5457 102.568 36.2577 102.112 35.8737 101.872C35.4657 101.608 34.8417 101.488 34.0017 101.488C33.2817 101.488 32.7297 101.584 32.3697 101.8C31.9377 102.016 31.7457 102.352 31.7457 102.832C31.7457 103.216 32.0577 103.576 32.7297 103.864C33.1377 104.032 33.9537 104.272 35.2017 104.584C36.5937 104.92 37.6497 105.304 38.3217 105.76C39.3057 106.384 39.8097 107.272 39.8097 108.376C39.8097 111.016 37.9377 112.336 34.2177 112.336C30.7617 112.336 28.9137 110.872 28.6497 107.968H31.3137C31.4577 108.76 31.7457 109.312 32.1537 109.648C32.5617 109.936 33.2097 110.104 34.1217 110.104C36.0417 110.104 37.0017 109.576 37.0017 108.568C37.0017 107.992 36.6417 107.536 35.9217 107.2C35.5377 107.008 34.7217 106.792 33.4737 106.504C32.0097 106.168 30.9777 105.808 30.3777 105.424C29.4177 104.824 28.9377 103.984 28.9377 102.904C28.9377 101.752 29.3937 100.864 30.3537 100.24C31.2897 99.568 32.5137 99.256 34.0497 99.256ZM46.6591 99.256C49.9231 99.256 51.7231 100.552 52.0111 103.192H49.3471C49.1551 102.568 48.8671 102.112 48.4831 101.872C48.0751 101.608 47.4511 101.488 46.6111 101.488C45.8911 101.488 45.3391 101.584 44.9791 101.8C44.5471 102.016 44.3551 102.352 44.3551 102.832C44.3551 103.216 44.6671 103.576 45.3391 103.864C45.7471 104.032 46.5631 104.272 47.8111 104.584C49.2031 104.92 50.2591 105.304 50.9311 105.76C51.9151 106.384 52.4191 107.272 52.4191 108.376C52.4191 111.016 50.5471 112.336 46.8271 112.336C43.3711 112.336 41.5231 110.872 41.2591 107.968H43.9231C44.0671 108.76 44.3551 109.312 44.7631 109.648C45.1711 109.936 45.8191 110.104 46.7311 110.104C48.6511 110.104 49.6111 109.576 49.6111 108.568C49.6111 107.992 49.2511 107.536 48.5311 107.2C48.1471 107.008 47.3311 106.792 46.0831 106.504C44.6191 106.168 43.5871 105.808 42.9871 105.424C42.0271 104.824 41.5471 103.984 41.5471 102.904C41.5471 101.752 42.0031 100.864 42.9631 100.24C43.8991 99.568 45.1231 99.256 46.6591 99.256ZM62.2684 94.528C64.4764 94.528 66.2044 95.008 67.4764 95.992C68.7004 96.952 69.4684 98.368 69.7804 100.288H66.9484C66.7084 99.184 66.1804 98.368 65.4124 97.816C64.6204 97.264 63.5644 97 62.2684 97C60.6604 97 59.3884 97.528 58.4524 98.632C57.4204 99.784 56.9164 101.392 56.9164 103.504C56.9164 105.52 57.3724 107.08 58.2844 108.16C59.2684 109.312 60.8044 109.888 62.8924 109.888C63.7084 109.888 64.4764 109.792 65.1964 109.6C65.8684 109.408 66.4684 109.144 67.0444 108.808V105.28H62.5084V102.88H69.8524V110.128C68.9404 110.848 67.9084 111.376 66.7324 111.76C65.4844 112.144 64.1164 112.336 62.5804 112.336C59.8444 112.336 57.7324 111.472 56.2204 109.744C54.8044 108.136 54.1084 106.048 54.1084 103.504C54.1084 100.936 54.8044 98.824 56.2204 97.168C57.7084 95.392 59.7244 94.528 62.2684 94.528ZM78.0091 99.256C80.0491 99.256 81.6091 99.928 82.6891 101.32C83.6731 102.568 84.1771 104.32 84.1771 106.552H74.8891C74.9851 107.704 75.2971 108.592 75.8251 109.192C76.3531 109.792 77.1211 110.104 78.1051 110.104C78.9451 110.104 79.6171 109.912 80.1451 109.528C80.5531 109.216 80.9131 108.712 81.2491 108.016H83.9851C83.6971 109.168 83.1211 110.152 82.2571 110.92C81.1531 111.856 79.7851 112.336 78.1291 112.336C76.2811 112.336 74.8171 111.76 73.7371 110.632C72.5851 109.456 72.0091 107.848 72.0091 105.784C72.0091 103.936 72.5371 102.4 73.6411 101.152C74.6971 99.88 76.1611 99.256 78.0091 99.256ZM78.0811 101.488C77.1691 101.488 76.4731 101.728 75.9451 102.256C75.4411 102.76 75.1051 103.504 74.9371 104.488H81.3211C81.0811 102.472 80.0011 101.488 78.0811 101.488ZM92.7543 99.256C95.8503 99.256 97.4103 100.936 97.4103 104.344V112H94.6743V104.584C94.6743 102.544 93.7383 101.536 91.8663 101.536C91.1943 101.536 90.5943 101.776 90.0903 102.256C89.5143 102.784 89.1783 103.552 89.0823 104.536V112H86.3463V99.592H89.0823V101.032C89.5623 100.456 90.1143 100 90.7143 99.712C91.3383 99.4 92.0103 99.256 92.7543 99.256ZM103.388 92.992H118.412V101.752H103.388V92.992ZM115.94 99.64V98.344H105.884V99.64H115.94ZM105.884 96.376H115.94V95.104H105.884V96.376ZM109.868 105.28H100.148V103.024H121.58V105.28H112.388V107.296H119.012V109.504H112.388V111.808C113.468 111.904 114.716 111.952 116.108 111.952C118.244 111.952 120.044 111.904 121.508 111.856L120.812 114.208C119.132 114.208 117.62 114.184 116.276 114.16C112.292 114.136 109.58 113.824 108.092 113.248C106.94 112.768 105.932 111.832 105.02 110.488C104.108 112.096 102.956 113.44 101.588 114.52L99.9556 112.432C102.116 110.752 103.556 108.544 104.324 105.76L106.7 106.168C106.484 107.008 106.22 107.8 105.932 108.544C106.844 109.96 107.9 110.848 109.076 111.232C109.316 111.304 109.58 111.376 109.868 111.448V105.28ZM123.932 101.944H145.748V104.44H123.932V101.944ZM157.58 99.472H160.124V114.496H157.58V99.472ZM157.748 92.272H159.956C161.924 95.488 165.332 98.296 170.132 100.72L168.62 103C164.252 100.744 160.988 97.96 158.852 94.624C156.284 98.248 153.02 101.032 149.084 103L147.572 100.72C151.988 98.56 155.372 95.728 157.748 92.272ZM179.372 103.192H184.532V99.064H187.076V103.192H192.572V105.64H187.076V111.256H193.604V113.704H178.508V111.256H184.532V105.64H179.372V103.192ZM175.172 105.592C174.524 106.216 173.852 106.816 173.156 107.416L171.548 105.328C174.236 103.096 176.396 100.552 178.004 97.72H172.412V95.272H179.204C179.66 94.216 180.044 93.136 180.38 92.032L182.972 92.344C182.684 93.352 182.348 94.312 181.988 95.272H193.604V97.72H180.884C179.972 99.544 178.892 101.248 177.644 102.832V114.568H175.172V105.592ZM204.38 109.24V111.592C202.028 112.48 199.364 113.2 196.364 113.752L196.052 111.304C199.22 110.776 202.004 110.104 204.38 109.24ZM199.604 92.128L202.004 93.088C200.9 95.896 199.796 98.2 198.668 99.976L200.972 99.688C201.356 98.872 201.788 98.032 202.22 97.12L204.452 97.984C202.58 101.608 200.972 104.272 199.676 106C201.14 105.688 202.628 105.28 204.14 104.752V106.984C201.524 107.872 199.052 108.472 196.724 108.76L196.076 106.504C196.508 106.312 196.892 106.072 197.204 105.784C197.876 105.064 198.74 103.768 199.772 101.944L196.364 102.4L195.764 100.12C196.148 99.952 196.484 99.64 196.796 99.208C197.876 97.048 198.812 94.696 199.604 92.128ZM216.068 96.28L216.428 98.584L210.5 99.4C210.524 100.288 210.572 101.128 210.668 101.92L216.716 100.984L217.1 103.336L210.956 104.296C210.956 104.464 210.98 104.632 211.028 104.8C211.22 105.88 211.46 106.84 211.748 107.704C212.78 106.696 213.716 105.544 214.556 104.296L216.548 105.64C215.372 107.344 214.124 108.808 212.804 110.032C213.452 110.992 214.028 111.496 214.556 111.496C215.084 111.496 215.516 110.416 215.852 108.256L217.988 109.648C217.268 112.72 216.236 114.256 214.844 114.256C213.596 114.232 212.444 113.488 211.364 112.048C211.22 111.856 211.076 111.688 210.98 111.52C209.3 112.72 207.5 113.608 205.604 114.184L204.14 112.168C206.252 111.496 208.148 110.56 209.828 109.336C209.396 108.352 209.06 107.272 208.796 106.12C208.676 105.64 208.58 105.16 208.508 104.68L204.476 105.304L204.116 102.952L208.172 102.304C208.076 101.488 208.028 100.624 207.98 99.76L204.884 100.192L204.524 97.888L207.932 97.408V92.272H210.452V97.072L216.068 96.28ZM213.14 92.176C214.268 93.256 215.156 94.192 215.78 94.96L213.812 96.328C213.188 95.44 212.324 94.456 211.244 93.376L213.14 92.176ZM224.924 98.848C223.988 100.96 222.788 102.76 221.324 104.2L219.668 102.112C221.828 99.856 223.268 96.832 224.012 93.016L226.58 93.496C226.364 94.528 226.124 95.512 225.836 96.424H230.012V92.488H232.532V96.424H240.14V98.848H232.532V103.552H239.684V105.976H232.532V111.208H241.7V113.704H220.34V111.208H230.012V105.976H223.244V103.552H230.012V98.848H224.924ZM261.068 92.08C262.148 92.896 263.06 93.736 263.828 94.576L262.724 95.704H265.58V98.08H258.524C258.716 100.864 259.004 103.024 259.388 104.512C259.46 104.848 259.556 105.16 259.652 105.496C260.612 103.816 261.404 101.872 262.028 99.712L264.308 100.696C263.372 103.744 262.172 106.336 260.708 108.472C260.924 108.952 261.164 109.384 261.404 109.744C262.076 110.776 262.604 111.304 262.964 111.304C263.204 111.304 263.492 110.152 263.804 107.848L266.06 109.072C265.436 112.456 264.548 114.16 263.348 114.16C262.292 114.16 261.188 113.44 260.012 112.024C259.676 111.592 259.34 111.112 259.052 110.584C257.468 112.312 255.644 113.632 253.58 114.544L252.14 112.432C254.396 111.424 256.316 109.96 257.9 108.04C257.564 107.2 257.276 106.288 257.012 105.304C256.484 103.384 256.148 100.96 255.956 98.08H248.468V101.416H254.348C254.276 105.88 254.036 108.664 253.628 109.768C253.244 110.776 252.404 111.28 251.108 111.304C250.532 111.304 249.884 111.256 249.164 111.184L248.396 108.904C249.356 108.976 250.148 109.024 250.82 109.024C251.204 109 251.468 108.76 251.588 108.28C251.732 107.728 251.804 106.216 251.852 103.768H248.468C248.348 108.232 247.364 111.808 245.516 114.52L243.62 112.816C245.108 110.632 245.876 107.584 245.948 103.696V95.704H255.836C255.788 94.6 255.788 93.424 255.788 92.224H258.332C258.332 93.448 258.356 94.6 258.404 95.704H261.788C261.188 95.032 260.42 94.312 259.484 93.592L261.068 92.08ZM268.532 93.04H275.084V94.912C274.652 96.832 274.172 98.824 273.62 100.888C274.556 102.928 275.06 104.704 275.156 106.192C275.156 107.296 274.94 108.088 274.556 108.544C273.98 109.144 273.02 109.456 271.628 109.456L270.884 107.152C271.508 107.224 272.036 107.272 272.444 107.272C272.612 107.224 272.732 107.152 272.804 107.008C272.852 106.864 272.9 106.576 272.9 106.192C272.9 104.728 272.372 103.072 271.364 101.248C271.988 99.04 272.468 97.024 272.804 95.248H270.836V114.28H268.532V93.04ZM277.028 93.592C277.868 95.032 278.516 96.304 278.972 97.384L277.124 98.632C276.644 97.456 275.996 96.16 275.204 94.72L277.028 93.592ZM285.068 111.856C286.796 111.856 288.428 111.832 289.964 111.784L289.34 114.136H284.876C284.204 114.136 283.532 114.112 282.86 114.088C281.876 114.064 280.988 113.92 280.196 113.656C279.428 113.368 278.804 112.912 278.3 112.264C278.012 111.928 277.748 111.784 277.532 111.784C277.148 111.784 276.308 112.696 275.06 114.52L273.644 112.624C274.748 111.136 275.684 110.152 276.5 109.696V102.328H274.82V100.12H278.804V102.4C280.196 100.84 281.228 98.92 281.948 96.616H279.308V94.36H282.524C282.644 93.688 282.74 93.016 282.836 92.32L285.26 92.632C285.116 93.232 284.996 93.808 284.876 94.36H289.748V96.616H284.276C284.084 97.24 283.868 97.84 283.652 98.416H288.932V109.048C288.932 110.32 288.26 110.968 286.916 111.016H285.356L284.78 108.904C285.284 108.976 285.764 109.024 286.22 109.024C286.556 109.024 286.724 108.784 286.724 108.328V107.152H283.388V111.088H281.252V102.784C280.82 103.312 280.388 103.768 279.956 104.152L278.804 102.688V110.152C279.188 110.632 279.692 111.016 280.292 111.328C280.94 111.568 281.684 111.736 282.548 111.808C283.388 111.832 284.228 111.856 285.068 111.856ZM283.388 103.816V105.184H286.724V103.816H283.388ZM286.724 101.848V100.336H283.388V101.848H286.724ZM292.148 96.712H295.436V92.296H297.932V96.712H300.62V99.136H297.932V100.024C298.988 101.056 300.068 102.208 301.148 103.456L299.684 105.664C299.012 104.464 298.436 103.432 297.932 102.592V114.4H295.436V103.528C294.692 105.496 293.78 107.32 292.7 109L291.62 106.264C293.3 104.2 294.524 101.824 295.316 99.136H292.148V96.712ZM299.132 112.864C300.092 111.424 300.788 109.888 301.172 108.304C301.484 106.936 301.652 104.896 301.652 102.184V93.04H310.1V111.256C310.1 111.472 310.172 111.592 310.34 111.592H311.06C311.252 111.592 311.396 111.544 311.492 111.448C311.588 111.352 311.636 111.208 311.684 111.04C311.78 110.704 311.828 109.24 311.828 106.696L314.132 107.416C314.132 109.24 314.06 110.632 313.964 111.544C313.868 112.456 313.628 113.08 313.244 113.464C312.86 113.776 312.236 113.944 311.396 113.944H310.316C308.468 113.944 307.556 113.128 307.556 111.544V95.392H304.148V102.184C304.148 104.896 303.932 107.2 303.5 109.12C303.092 111.04 302.324 112.912 301.196 114.688L299.132 112.864ZM325.676 107.056H328.172V111.376H333.212V107.512H335.684V114.52H333.212V113.68H318.356V107.56H320.828V111.376H325.676V107.056ZM336.908 93.736V97.936H334.508V95.92H319.196V98.008H316.796V93.736H325.292C325.1 93.352 324.884 92.992 324.644 92.656L327.356 92.224C327.548 92.68 327.764 93.184 327.956 93.736H336.908ZM326.228 96.064C327.164 97.144 327.908 98.08 328.436 98.872L326.636 100.12C326.084 99.256 325.34 98.272 324.428 97.192L326.228 96.064ZM331.532 96.664L333.38 98.056C331.364 100.432 328.82 102.448 325.772 104.08H329.684C330.116 104.08 330.404 103.984 330.596 103.816C330.836 103.6 330.98 102.976 331.076 101.92L333.308 102.664C333.116 104.44 332.756 105.496 332.276 105.832C331.796 106.168 331.1 106.336 330.14 106.336H324.74C323.78 106.336 323.108 106.048 322.724 105.52C320.948 106.24 319.052 106.888 317.036 107.416L316.052 105.232C318.332 104.656 320.42 103.96 322.316 103.144V98.848H324.644V102.04C327.428 100.552 329.708 98.752 331.532 96.664ZM334.004 99.136C335.588 100.816 336.836 102.304 337.7 103.576L335.708 104.944C334.82 103.6 333.644 102.088 332.18 100.456L334.004 99.136ZM319.676 97.72L321.932 98.176C321.308 100.384 320.42 102.304 319.268 103.912L317.132 102.568C318.332 101.032 319.196 99.424 319.676 97.72ZM348.284 100.48V113.248H345.98V112.144H344.108V113.704H341.804V104.944C341.468 105.472 341.132 105.976 340.796 106.48L339.548 104.44C341.156 101.872 342.236 98.992 342.812 95.776H340.268V93.376H348.668V95.776H345.164C344.852 97.432 344.444 98.992 343.916 100.48H348.284ZM344.108 109.864H345.98V102.736H344.108V109.864ZM350.78 96.712L353.228 96.856L352.244 102.52H356.636L357.692 95.392H349.532V93.04H360.404L359.156 102.52H361.556C361.556 108.568 361.196 112.072 360.5 113.008C359.78 113.92 358.292 114.4 356.036 114.4C355.364 114.4 354.692 114.352 353.972 114.28L353.252 111.856C354.308 112 355.052 112.072 355.46 112.072C357.236 112.072 358.292 111.712 358.628 111.016C358.988 110.296 359.18 108.256 359.18 104.848H349.484L350.78 96.712ZM349.028 107.176H358.004V109.528H349.028V107.176ZM372.86 96.184V113.008H370.46V111.808H366.908V113.704H364.508V96.184H366.812C367.244 94.912 367.556 93.592 367.748 92.224L370.268 92.56C370.004 93.856 369.644 95.08 369.212 96.184H372.86ZM366.908 109.504H370.46V104.968H366.908V109.504ZM366.908 102.736H370.46V98.536H366.908V102.736ZM377.228 102.016C378.764 103.96 379.94 105.664 380.78 107.152L378.764 108.544C377.876 106.96 376.676 105.208 375.188 103.288L377.228 102.016ZM385.22 96.184C385.22 104.584 385.1 109.768 384.86 111.736C384.62 113.416 383.468 114.256 381.404 114.256C380.924 114.256 380.06 114.208 378.812 114.112L378.212 111.832C379.268 111.904 380.204 111.952 380.996 111.952C381.86 111.952 382.364 111.472 382.508 110.536C382.652 109.384 382.724 105.424 382.772 98.632H376.964C376.316 100.072 375.548 101.368 374.66 102.52L373.148 100.528C374.732 98.272 375.788 95.488 376.364 92.2L378.836 92.512C378.596 93.808 378.284 95.032 377.924 96.184H385.22ZM397.604 96.304H389.636V93.904H408.14V96.304H400.148V110.656H409.604V113.08H388.124V110.656H397.604V96.304ZM430.436 93.016V107.656H433.604V109.984H428.156C430.052 110.68 431.804 111.472 433.436 112.336L432.044 114.52C429.716 113.104 427.34 112 424.94 111.184L425.756 109.984H419.492L420.668 111.016C418.82 112.36 416.54 113.536 413.828 114.568L412.292 112.552C414.452 111.784 416.324 110.944 417.908 109.984H412.1V107.656H415.268V93.016H430.436ZM417.788 107.656H427.916V106.048H417.788V107.656ZM417.788 104.08H427.916V102.448H417.788V104.08ZM417.788 100.48H427.916V98.824H417.788V100.48ZM417.788 96.88H427.916V95.368H417.788V96.88ZM439.508 108.376C440.156 108.376 440.708 108.64 441.14 109.168C441.548 109.696 441.764 110.392 441.764 111.232C441.764 112.504 441.38 113.608 440.66 114.568C439.916 115.504 438.908 116.152 437.66 116.512V114.928C438.308 114.688 438.86 114.304 439.316 113.776C439.724 113.2 439.94 112.648 439.94 112.072C439.796 112.12 439.604 112.168 439.34 112.168C438.812 112.168 438.38 111.976 438.02 111.616C437.66 111.256 437.492 110.8 437.492 110.272C437.492 109.696 437.684 109.24 438.068 108.904C438.428 108.544 438.908 108.376 439.508 108.376ZM461.876 93.28H479.444V95.728H471.044V97.12C470.996 98.416 470.924 99.616 470.78 100.744H481.34V103.168H474.164V110.608C474.164 111.376 474.524 111.784 475.244 111.784H477.812C478.244 111.784 478.58 111.592 478.796 111.256C479.06 110.92 479.228 109.84 479.324 108.016L481.676 108.808C481.46 111.4 481.076 112.936 480.548 113.416C480.068 113.872 479.3 114.112 478.292 114.112H474.476C472.604 114.112 471.668 113.104 471.668 111.112V103.168H470.372C469.94 105.208 469.34 106.984 468.548 108.472C467.06 111.112 464.66 113.128 461.348 114.52L459.932 112.288C463.244 110.776 465.452 108.88 466.604 106.624C467.084 105.568 467.468 104.416 467.78 103.168H460.34V100.744H468.212C468.356 99.592 468.452 98.392 468.5 97.12V95.728H461.876V93.28ZM497.156 92.248H499.388C500.708 95.128 503.012 97.648 506.276 99.808L504.884 101.92C501.908 99.928 499.724 97.48 498.284 94.6C496.556 97.816 494.396 100.312 491.804 102.088L490.412 99.952C493.34 97.984 495.572 95.416 497.156 92.248ZM501.788 114.088H496.508C494.612 114.088 493.676 113.08 493.676 111.064V100.864H496.172V104.656C498.332 103.84 500.396 102.712 502.364 101.296L503.804 103.312C501.092 104.992 498.548 106.264 496.172 107.128V110.536C496.172 111.352 496.532 111.76 497.276 111.76H501.332C501.908 111.76 502.316 111.568 502.58 111.232C502.916 110.872 503.156 109.768 503.252 107.896L505.628 108.688C505.388 111.328 504.98 112.888 504.356 113.368C503.78 113.848 502.94 114.088 501.788 114.088ZM487.004 92.44C488.54 93.616 489.836 94.792 490.892 95.944L489.164 97.696C488.252 96.592 486.932 95.416 485.228 94.168L487.004 92.44ZM483.74 99.376H489.332V109.384C490.028 108.76 490.772 108.088 491.564 107.32L492.212 109.816C490.628 111.304 488.972 112.648 487.196 113.848L486.26 111.616C486.668 111.256 486.884 110.824 486.884 110.296V101.776H483.74V99.376ZM515.372 103.192H520.532V99.064H523.076V103.192H528.572V105.64H523.076V111.256H529.604V113.704H514.508V111.256H520.532V105.64H515.372V103.192ZM511.172 105.592C510.524 106.216 509.852 106.816 509.156 107.416L507.548 105.328C510.236 103.096 512.396 100.552 514.004 97.72H508.412V95.272H515.204C515.66 94.216 516.044 93.136 516.38 92.032L518.972 92.344C518.684 93.352 518.348 94.312 517.988 95.272H529.604V97.72H516.884C515.972 99.544 514.892 101.248 513.644 102.832V114.568H511.172V105.592ZM538.964 93.568H553.892V95.992H552.236V111.784C552.236 113.536 551.372 114.424 549.668 114.424H545.612L545.06 111.976C546.38 112.072 547.628 112.144 548.804 112.144C549.38 112.144 549.692 111.808 549.692 111.136V95.992H538.964V93.568ZM539.3 98.872H547.436V108.304H539.3V98.872ZM545.012 106.048V101.128H541.724V106.048H545.012ZM536.636 92.08L538.892 93.136C538.364 94.912 537.668 96.592 536.804 98.176V114.544H534.332V102.016C533.708 102.808 533.06 103.6 532.364 104.368L531.524 101.68C533.828 98.968 535.532 95.776 536.636 92.08ZM560.276 92.296L562.724 92.728C562.532 93.784 562.34 94.768 562.1 95.728H567.332V97.96C566.78 102.04 565.628 105.472 563.876 108.232C564.308 108.856 564.788 109.36 565.268 109.696C566.996 110.968 569.78 111.64 573.572 111.688C574.988 111.688 576.452 111.616 577.964 111.496L577.46 114.112H574.772C569.708 114.112 566.06 113.248 563.852 111.568C563.348 111.184 562.892 110.704 562.46 110.152C561.02 111.856 559.292 113.248 557.324 114.352L555.98 111.952C557.948 110.872 559.604 109.48 560.948 107.752C560.3 106.456 559.7 104.92 559.172 103.168C558.62 104.08 558.02 104.896 557.372 105.664L555.668 103.504C557.948 100.72 559.484 97 560.276 92.296ZM560.612 100.288C561.188 102.376 561.788 104.128 562.412 105.544C563.564 103.432 564.404 100.936 564.884 98.104H561.428C561.164 98.872 560.9 99.592 560.612 100.288ZM569.804 92.392H572.324V98.488C574.244 99.832 576.188 101.368 578.156 103.096L576.668 105.352C574.988 103.576 573.524 102.184 572.324 101.128V110.152H569.804V92.392ZM583.508 108.376C584.156 108.376 584.708 108.64 585.14 109.168C585.548 109.696 585.764 110.392 585.764 111.232C585.764 112.504 585.38 113.608 584.66 114.568C583.916 115.504 582.908 116.152 581.66 116.512V114.928C582.308 114.688 582.86 114.304 583.316 113.776C583.724 113.2 583.94 112.648 583.94 112.072C583.796 112.12 583.604 112.168 583.34 112.168C582.812 112.168 582.38 111.976 582.02 111.616C581.66 111.256 581.492 110.8 581.492 110.272C581.492 109.696 581.684 109.24 582.068 108.904C582.428 108.544 582.908 108.376 583.508 108.376ZM613.676 107.056H616.172V111.376H621.212V107.512H623.684V114.52H621.212V113.68H606.356V107.56H608.828V111.376H613.676V107.056ZM624.908 93.736V97.936H622.508V95.92H607.196V98.008H604.796V93.736H613.292C613.1 93.352 612.884 92.992 612.644 92.656L615.356 92.224C615.548 92.68 615.764 93.184 615.956 93.736H624.908ZM614.228 96.064C615.164 97.144 615.908 98.08 616.436 98.872L614.636 100.12C614.084 99.256 613.34 98.272 612.428 97.192L614.228 96.064ZM619.532 96.664L621.38 98.056C619.364 100.432 616.82 102.448 613.772 104.08H617.684C618.116 104.08 618.404 103.984 618.596 103.816C618.836 103.6 618.98 102.976 619.076 101.92L621.308 102.664C621.116 104.44 620.756 105.496 620.276 105.832C619.796 106.168 619.1 106.336 618.14 106.336H612.74C611.78 106.336 611.108 106.048 610.724 105.52C608.948 106.24 607.052 106.888 605.036 107.416L604.052 105.232C606.332 104.656 608.42 103.96 610.316 103.144V98.848H612.644V102.04C615.428 100.552 617.708 98.752 619.532 96.664ZM622.004 99.136C623.588 100.816 624.836 102.304 625.7 103.576L623.708 104.944C622.82 103.6 621.644 102.088 620.18 100.456L622.004 99.136ZM607.676 97.72L609.932 98.176C609.308 100.384 608.42 102.304 607.268 103.912L605.132 102.568C606.332 101.032 607.196 99.424 607.676 97.72ZM636.284 100.48V113.248H633.98V112.144H632.108V113.704H629.804V104.944C629.468 105.472 629.132 105.976 628.796 106.48L627.548 104.44C629.156 101.872 630.236 98.992 630.812 95.776H628.268V93.376H636.668V95.776H633.164C632.852 97.432 632.444 98.992 631.916 100.48H636.284ZM632.108 109.864H633.98V102.736H632.108V109.864ZM638.78 96.712L641.228 96.856L640.244 102.52H644.636L645.692 95.392H637.532V93.04H648.404L647.156 102.52H649.556C649.556 108.568 649.196 112.072 648.5 113.008C647.78 113.92 646.292 114.4 644.036 114.4C643.364 114.4 642.692 114.352 641.972 114.28L641.252 111.856C642.308 112 643.052 112.072 643.46 112.072C645.236 112.072 646.292 111.712 646.628 111.016C646.988 110.296 647.18 108.256 647.18 104.848H637.484L638.78 96.712ZM637.028 107.176H646.004V109.528H637.028V107.176ZM654.932 93.448H670.772V104.968H654.932V93.448ZM668.3 102.592V95.848H657.404V102.592H668.3ZM667.652 105.832C670.196 108.616 672.164 111.064 673.532 113.152L671.372 114.664C669.98 112.384 668.06 109.864 665.612 107.104L667.652 105.832ZM658.1 105.88L660.308 106.936C658.676 109.912 656.732 112.504 654.5 114.712L652.268 113.08C654.524 111.088 656.468 108.688 658.1 105.88ZM681.884 101.44H687.5V100.648C685.604 100.696 683.588 100.72 681.452 100.72L680.852 98.92C686.564 98.92 691.388 98.728 695.372 98.344L696.404 100.096C694.532 100.288 692.348 100.456 689.852 100.576V101.44H695.564V106.024H689.852V106.912H697.196V112.048C697.196 113.632 696.428 114.424 694.916 114.424H692.468L691.916 112.336L692.468 112.36C692.372 112.12 692.324 111.928 692.276 111.76C689.828 112.144 687.236 112.456 684.5 112.72L683.996 110.68C685.172 110.608 686.348 110.536 687.5 110.44V108.88H683.036V114.496H680.732V106.912H687.5V106.024H681.884V101.44ZM689.708 108.88V110.248L691.652 110.032C691.484 109.624 691.316 109.24 691.148 108.88H689.708ZM693.332 104.272V103.216H689.852V104.272H693.332ZM687.5 104.272V103.216H684.14V104.272H687.5ZM693.044 112.384L694.244 112.432C694.7 112.432 694.94 112.144 694.94 111.568V108.88H693.044C693.476 109.84 693.884 110.848 694.244 111.856L693.044 112.384ZM694.34 94.984H680.348V96.16H694.34V94.984ZM680.348 97.984V100.336C680.324 105.688 679.412 110.272 677.588 114.112L675.716 112.408C677.156 109.288 677.9 105.28 677.924 100.336V93.04H696.716V97.984H680.348ZM701.636 93.04H719.9V95.488H712.316V101.056H721.556V103.552H712.316V111.616C712.316 113.344 711.404 114.232 709.58 114.232H705.74L705.212 111.808C706.436 111.904 707.612 111.952 708.716 111.952C709.436 111.952 709.796 111.616 709.796 110.968V103.552H700.148V101.056H709.796V95.488H701.636V93.04ZM726.428 102.112C725.78 102.88 725.108 103.648 724.388 104.392L723.548 101.704C726.02 98.992 727.844 95.8 729.044 92.128L731.372 93.232C730.748 95.104 729.932 96.88 728.924 98.56V114.496H726.428V102.112ZM742.868 101.848C743.996 104.632 744.98 107.632 745.796 110.8L743.588 111.784C742.724 108.328 741.74 105.256 740.66 102.592L742.868 101.848ZM734.3 97.36C733.58 99.112 732.764 100.72 731.852 102.16L729.692 100.816C731.468 98.152 732.716 95.32 733.436 92.32L735.788 92.824C735.596 93.544 735.38 94.264 735.164 94.96H745.172V96.592C744.812 98.032 744.356 99.448 743.804 100.864L741.404 100.168C741.884 99.352 742.268 98.416 742.604 97.36H734.3ZM736.964 114.328H733.916L733.364 111.976C734.324 112.072 735.26 112.144 736.124 112.144C736.7 112.144 736.988 111.832 736.988 111.232V99.016H739.412V111.832C739.412 113.488 738.596 114.328 736.964 114.328ZM733.052 102.112L735.308 102.736C734.468 106.024 733.388 108.904 732.092 111.376L729.74 110.536C730.988 108.328 732.092 105.52 733.052 102.112ZM752.852 108.352C753.764 108.352 754.556 108.664 755.228 109.288C755.876 109.912 756.212 110.68 756.212 111.592C756.212 112.504 755.876 113.272 755.228 113.896C754.556 114.52 753.764 114.832 752.852 114.832C751.916 114.832 751.124 114.52 750.476 113.92C749.804 113.296 749.492 112.504 749.492 111.592C749.492 110.656 749.804 109.888 750.476 109.264C751.124 108.64 751.916 108.352 752.852 108.352ZM752.852 110.032C752.42 110.032 752.036 110.176 751.724 110.488C751.388 110.776 751.244 111.16 751.244 111.592C751.244 112.024 751.388 112.384 751.724 112.696C752.036 112.984 752.42 113.152 752.852 113.152C753.284 113.152 753.644 112.984 753.98 112.696C754.292 112.384 754.46 112.024 754.46 111.592C754.46 111.16 754.292 110.776 753.98 110.488C753.644 110.176 753.284 110.032 752.852 110.032Z" fill="black"/>
<defs>
<linearGradient id="paint0_linear_722_7463" x1="178" y1="2" x2="193.112" y2="116.597" gradientUnits="userSpaceOnUse">
<stop offset="0.065" stop-color="#A73EE7"/>
<stop offset="0.85902" stop-color="#00EBFF"/>
</linearGradient>
</defs>
</svg>
