<svg width="25" height="23" viewBox="0 0 25 23" fill="none" xmlns="http://www.w3.org/2000/svg">
<path d="M23.9054 4.38645C23.4489 4.22174 22.9454 4.46175 22.7854 4.91823L22.1077 6.81944C21.3124 5.02646 20.0559 3.44996 18.4559 2.26876C13.3687 -1.49603 6.12149 -0.470125 2.30965 4.56528C0.4649 7.00298 -0.316293 10.0054 0.116657 13.0172C0.549608 16.0432 2.15435 18.7209 4.62499 20.5515C6.69562 22.0809 9.11921 22.8245 11.524 22.8245C15.0393 22.8245 18.5076 21.248 20.7712 18.2597C21.7736 16.9373 22.456 15.4596 22.8089 13.8596C22.9124 13.3843 22.6113 12.9184 22.1407 12.8149C21.6701 12.7113 21.1995 13.0078 21.0959 13.4831C20.7995 14.8337 20.2206 16.0855 19.3735 17.2008C16.1405 21.4692 9.98981 22.3398 5.66972 19.1397C3.57556 17.5914 2.22023 15.3279 1.85317 12.7678C1.4861 10.2219 2.14494 7.68534 3.70732 5.62412C6.93563 1.3558 13.0816 0.480484 17.4064 3.68055C18.9735 4.83822 20.1453 6.44296 20.7806 8.25477L17.7641 7.07827C17.3123 6.90415 16.8041 7.12533 16.6252 7.57711C16.4464 8.02888 16.6723 8.53713 17.1241 8.71595L21.5665 10.4525C21.6701 10.4948 21.7783 10.5136 21.8865 10.5136C21.9007 10.5136 21.9148 10.5089 21.9289 10.5089C21.9618 10.5136 21.9948 10.5278 22.0277 10.5278C22.3901 10.5278 22.7289 10.3019 22.856 9.94422L24.4372 5.52059C24.5972 5.0547 24.3619 4.55116 23.9054 4.38645Z" fill="white" fill-opacity="0.9"/>
</svg>