<svg width="8" height="37" viewBox="0 0 8 37" fill="none" xmlns="http://www.w3.org/2000/svg">
<mask id="path-1-inside-1_200_6378" fill="white">
<path fill-rule="evenodd" clip-rule="evenodd" d="M3.30158 0C1.19438 2.74955 0 6.15684 0 9.7342V27.259C0 30.8363 1.19438 34.2436 3.30158 36.9932C3.41985 35.9388 3.62197 34.8944 3.90656 33.8699L6.69 23.8495C7.66286 20.3472 7.66286 16.646 6.69 13.1437L3.90656 3.12331C3.62197 2.09878 3.41985 1.05434 3.30158 0Z"/>
</mask>
<path fill-rule="evenodd" clip-rule="evenodd" d="M3.30158 0C1.19438 2.74955 0 6.15684 0 9.7342V27.259C0 30.8363 1.19438 34.2436 3.30158 36.9932C3.41985 35.9388 3.62197 34.8944 3.90656 33.8699L6.69 23.8495C7.66286 20.3472 7.66286 16.646 6.69 13.1437L3.90656 3.12331C3.62197 2.09878 3.41985 1.05434 3.30158 0Z" fill="url(#paint0_linear_200_6378)"/>
<path d="M3.30158 0L4.29534 -0.111479L4.0185 -2.57942L2.50786 -0.608288L3.30158 0ZM3.30158 36.9932L2.50786 37.6015L4.0185 39.5726L4.29534 37.1047L3.30158 36.9932ZM3.90656 33.8699L4.87007 34.1375L4.87007 34.1375L3.90656 33.8699ZM6.69 23.8495L5.72649 23.5818L5.72649 23.5818L6.69 23.8495ZM6.69 13.1437L5.72649 13.4114L5.72649 13.4114L6.69 13.1437ZM3.90656 3.12331L2.94304 3.39095L2.94304 3.39095L3.90656 3.12331ZM1 9.7342C1 6.38054 2.11957 3.18629 4.09529 0.608288L2.50786 -0.608288C0.269193 2.31281 -1 5.93315 -1 9.7342H1ZM1 27.259V9.7342H-1V27.259H1ZM4.09529 36.3849C2.11957 33.8069 1 30.6127 1 27.259H-1C-1 31.06 0.269192 34.6804 2.50786 37.6015L4.09529 36.3849ZM4.29534 37.1047C4.4077 36.103 4.59971 35.1108 4.87007 34.1375L2.94304 33.6022C2.64422 34.678 2.432 35.7747 2.30781 36.8817L4.29534 37.1047ZM4.87007 34.1375L7.65352 24.1171L5.72649 23.5818L2.94304 33.6022L4.87007 34.1375ZM7.65352 24.1171C8.67502 20.4397 8.67502 16.5535 7.65352 12.8761L5.72649 13.4114C6.6507 16.7385 6.6507 20.2547 5.72649 23.5818L7.65352 24.1171ZM7.65352 12.8761L4.87007 2.85566L2.94304 3.39095L5.72649 13.4114L7.65352 12.8761ZM4.87007 2.85566C4.59971 1.88236 4.4077 0.890149 4.29534 -0.111479L2.30781 0.111479C2.432 1.21854 2.64422 2.3152 2.94304 3.39095L4.87007 2.85566Z" fill="white" fill-opacity="0.4" style="mix-blend-mode:overlay" mask="url(#path-1-inside-1_200_6378)"/>
<defs>
<linearGradient id="paint0_linear_200_6378" x1="27.6769" y1="20.4966" x2="7.67691" y2="42.4966" gradientUnits="userSpaceOnUse">
<stop stop-color="#C441F4"/>
<stop offset="1" stop-color="#00DAEA"/>
</linearGradient>
</defs>
</svg>
