<svg width="24" height="24" viewBox="0 0 24 24" fill="none" xmlns="http://www.w3.org/2000/svg">
<path d="M17.4712 2.90485C17.4706 3.01308 17.4272 3.11668 17.3504 3.193C17.2737 3.26932 17.1698 3.31215 17.0616 3.31214H16.9387C16.8305 3.31214 16.7267 3.26931 16.6499 3.19299C16.5732 3.11667 16.5297 3.01308 16.5291 2.90485V1.48556C16.5297 1.37729 16.5731 1.27364 16.6498 1.19727C16.7266 1.1209 16.8304 1.07803 16.9387 1.07803H17.0616C17.1699 1.07803 17.2737 1.1209 17.3505 1.19727C17.4273 1.27364 17.4707 1.37729 17.4712 1.48556L17.4712 2.90485ZM18.9263 3.90964C18.8522 3.98902 18.7496 4.03572 18.641 4.03947C18.5325 4.04321 18.4269 4.00369 18.3475 3.9296L18.2576 3.8464C18.2183 3.81004 18.1865 3.76624 18.1642 3.71753C18.1418 3.66882 18.1294 3.61617 18.1275 3.56262C18.1256 3.50906 18.1344 3.45567 18.1532 3.40551C18.1721 3.35536 18.2007 3.30944 18.2374 3.2704L19.2102 2.23259C19.2846 2.15349 19.3872 2.107 19.4956 2.10326C19.6041 2.09952 19.7097 2.13883 19.7893 2.21262L19.8789 2.29582C19.9182 2.33221 19.95 2.37601 19.9723 2.42472C19.9946 2.47342 20.0071 2.52607 20.0089 2.57961C20.0108 2.63315 20.0021 2.68654 19.9832 2.73669C19.9644 2.78685 19.9358 2.83277 19.8991 2.87182L18.9263 3.90964ZM19.4153 5.27079C19.3092 5.29302 19.1986 5.27228 19.1077 5.21311C19.0169 5.15394 18.9532 5.06117 18.9307 4.95514L18.9051 4.83532C18.8941 4.78284 18.8937 4.72871 18.9037 4.67605C18.9138 4.62339 18.9341 4.57323 18.9636 4.52845C18.993 4.48366 19.031 4.44514 19.0754 4.41508C19.1198 4.38502 19.1697 4.36402 19.2222 4.35328L20.6187 4.06324C20.7248 4.04101 20.8354 4.06175 20.9262 4.12092C21.0171 4.18008 21.0808 4.27284 21.1033 4.37888L21.1289 4.49869C21.1398 4.55117 21.1402 4.60529 21.1302 4.65794C21.1201 4.71059 21.0998 4.76074 21.0703 4.80552C21.0409 4.8503 21.0029 4.88883 20.9585 4.9189C20.9141 4.94896 20.8643 4.96998 20.8117 4.98075L19.4153 5.27079ZM11.9933 4.89626C16.4073 4.89626 19.9856 8.47437 19.9856 12.8883C19.9856 17.3023 16.4073 20.8809 11.9933 20.8809C7.57936 20.8809 4.00099 17.3028 4.00099 12.8886C4.00099 8.47439 7.5791 4.89626 11.9933 4.89626ZM11.9933 3.75424C6.9501 3.75424 2.85925 7.84385 2.85925 12.8883C2.85925 17.9328 6.94884 22.0227 11.9933 22.0227C17.0378 22.0227 21.1274 17.933 21.1274 12.8883C21.1274 7.84362 17.0378 3.7545 11.9933 3.7545V3.75424Z" fill="#2BF60A" fill-opacity="0.9"/>
<path d="M16.5603 10.2167C16.4536 10.1121 16.3101 10.0535 16.1607 10.0535C16.0113 10.0535 15.8678 10.1121 15.7611 10.2167L10.8515 15.0464L8.25979 12.4329C8.15381 12.3224 8.00825 12.2585 7.85515 12.2552C7.70205 12.252 7.55394 12.3098 7.4434 12.4157C7.33287 12.5217 7.26897 12.6673 7.26575 12.8204C7.26254 12.9735 7.32027 13.1216 7.42626 13.2321L10.0751 15.8572L10.8858 16.6676L16.5603 11.0275C16.6138 10.9744 16.6563 10.9112 16.6853 10.8417C16.7143 10.7721 16.7292 10.6975 16.7292 10.6221C16.7292 10.5467 16.7143 10.4721 16.6853 10.4025C16.6563 10.3329 16.6138 10.2698 16.5603 10.2167Z" fill="#2BF60A" fill-opacity="0.9"/>
</svg>
