<svg width="14" height="14" viewBox="0 0 14 14" fill="none" xmlns="http://www.w3.org/2000/svg">
<path d="M3.05 7.25H1.5C1.2 7.25 1 7.45 1 7.75V12.25C1 12.55 1.25 12.75 1.5 12.75H3L3.05 7.25ZM3.25 6.25L6.65 0.5C6.75 0.35 6.9 0.25 7.1 0.25C8.2 0.25 9.1 1.15 9.1 2.25V4.75H12.5C13.35 4.75 14 5.4 14 6.25V6.45L13.25 12.45C13.15 13.2 12.5 13.75 11.75 13.75H1.5C0.65 13.75 0 13.1 0 12.25V7.75C0 6.9 0.7 6.25 1.5 6.25H3.25ZM8.6 5.75C8.3 5.75 8.1 5.55 8.1 5.25V2.25C8.1 1.8 7.8 1.4 7.35 1.3L4.05 6.9V12.75H11.75C12 12.75 12.2 12.55 12.25 12.3L13 6.3V6.25C13 5.95 12.75 5.75 12.5 5.75H8.6Z" fill="white"/>
</svg>
