<svg width="1076" height="154" viewBox="0 0 1076 154" fill="none" xmlns="http://www.w3.org/2000/svg">
<path d="M349.188 29.5977H377.131C383.217 29.5977 387.769 31.0449 390.787 33.9395C393.83 36.834 395.352 40.9531 395.352 46.2969C395.352 51.7891 393.694 56.0814 390.379 59.1738C387.089 62.2663 382.054 63.8125 375.275 63.8125H366.072V84H349.188V29.5977ZM366.072 52.791H370.191C373.432 52.791 375.708 52.2344 377.02 51.1211C378.331 49.9831 378.986 48.5358 378.986 46.7793C378.986 45.0723 378.417 43.625 377.279 42.4375C376.141 41.25 374.001 40.6562 370.859 40.6562H366.072V52.791ZM416.949 57.3555L402.514 55.834C403.058 53.3105 403.837 51.3314 404.852 49.8965C405.891 48.4368 407.375 47.1751 409.305 46.1113C410.69 45.3444 412.595 44.7507 415.02 44.3301C417.444 43.9095 420.066 43.6992 422.887 43.6992C427.414 43.6992 431.051 43.959 433.797 44.4785C436.543 44.9733 438.831 46.0247 440.662 47.6328C441.949 48.7461 442.963 50.3294 443.705 52.3828C444.447 54.4115 444.818 56.3535 444.818 58.209V75.6133C444.818 77.4688 444.93 78.9284 445.152 79.9922C445.4 81.0312 445.919 82.3672 446.711 84H432.535C431.966 82.9857 431.595 82.2188 431.422 81.6992C431.249 81.1549 431.076 80.3138 430.902 79.1758C428.923 81.0807 426.956 82.4414 425.002 83.2578C422.33 84.3464 419.225 84.8906 415.688 84.8906C410.987 84.8906 407.412 83.8021 404.963 81.625C402.538 79.4479 401.326 76.7637 401.326 73.5723C401.326 70.5788 402.204 68.1172 403.961 66.1875C405.717 64.2578 408.958 62.8229 413.684 61.8828C419.349 60.7448 423.023 59.9531 424.705 59.5078C426.387 59.0378 428.169 58.4316 430.049 57.6895C430.049 55.834 429.665 54.5352 428.898 53.793C428.132 53.0508 426.783 52.6797 424.854 52.6797C422.38 52.6797 420.524 53.0755 419.287 53.8672C418.322 54.4857 417.543 55.6484 416.949 57.3555ZM430.049 65.2969C427.971 66.0391 425.806 66.6947 423.555 67.2637C420.487 68.0801 418.545 68.8841 417.729 69.6758C416.887 70.4922 416.467 71.4199 416.467 72.459C416.467 73.6465 416.875 74.6237 417.691 75.3906C418.533 76.1328 419.757 76.5039 421.365 76.5039C423.048 76.5039 424.606 76.0957 426.041 75.2793C427.501 74.4629 428.527 73.4733 429.121 72.3105C429.74 71.123 430.049 69.5892 430.049 67.709V65.2969ZM451.201 73.0898L466.193 71.6797C466.812 73.4609 467.678 74.735 468.791 75.502C469.904 76.2689 471.389 76.6523 473.244 76.6523C475.273 76.6523 476.844 76.2194 477.957 75.3535C478.823 74.7103 479.256 73.9062 479.256 72.9414C479.256 71.8529 478.687 71.0117 477.549 70.418C476.732 69.9974 474.568 69.4779 471.055 68.8594C465.81 67.944 462.161 67.1029 460.107 66.3359C458.079 65.5443 456.359 64.2207 454.949 62.3652C453.564 60.5098 452.871 58.3945 452.871 56.0195C452.871 53.4219 453.626 51.1829 455.135 49.3027C456.644 47.4225 458.722 46.0247 461.369 45.1094C464.016 44.1693 467.566 43.6992 472.02 43.6992C476.72 43.6992 480.184 44.0579 482.41 44.7754C484.661 45.4928 486.529 46.6061 488.014 48.1152C489.523 49.6243 490.772 51.6654 491.762 54.2383L477.438 55.6484C477.066 54.3867 476.448 53.459 475.582 52.8652C474.395 52.0736 472.96 51.6777 471.277 51.6777C469.57 51.6777 468.321 51.987 467.529 52.6055C466.762 53.1992 466.379 53.929 466.379 54.7949C466.379 55.7598 466.874 56.4896 467.863 56.9844C468.853 57.4792 471.005 57.9245 474.32 58.3203C479.342 58.8893 483.078 59.681 485.527 60.6953C487.977 61.7096 489.844 63.1569 491.131 65.0371C492.442 66.9173 493.098 68.9831 493.098 71.2344C493.098 73.5104 492.405 75.7246 491.02 77.877C489.659 80.0293 487.494 81.7487 484.525 83.0352C481.581 84.2969 477.561 84.9277 472.465 84.9277C465.266 84.9277 460.132 83.901 457.064 81.8477C454.021 79.7943 452.067 76.875 451.201 73.0898ZM497.662 73.0898L512.654 71.6797C513.273 73.4609 514.139 74.735 515.252 75.502C516.365 76.2689 517.85 76.6523 519.705 76.6523C521.734 76.6523 523.305 76.2194 524.418 75.3535C525.284 74.7103 525.717 73.9062 525.717 72.9414C525.717 71.8529 525.148 71.0117 524.01 70.418C523.193 69.9974 521.029 69.4779 517.516 68.8594C512.271 67.944 508.622 67.1029 506.568 66.3359C504.54 65.5443 502.82 64.2207 501.41 62.3652C500.025 60.5098 499.332 58.3945 499.332 56.0195C499.332 53.4219 500.087 51.1829 501.596 49.3027C503.105 47.4225 505.183 46.0247 507.83 45.1094C510.477 44.1693 514.027 43.6992 518.48 43.6992C523.181 43.6992 526.645 44.0579 528.871 44.7754C531.122 45.4928 532.99 46.6061 534.475 48.1152C535.984 49.6243 537.233 51.6654 538.223 54.2383L523.898 55.6484C523.527 54.3867 522.909 53.459 522.043 52.8652C520.855 52.0736 519.421 51.6777 517.738 51.6777C516.031 51.6777 514.782 51.987 513.99 52.6055C513.223 53.1992 512.84 53.929 512.84 54.7949C512.84 55.7598 513.335 56.4896 514.324 56.9844C515.314 57.4792 517.466 57.9245 520.781 58.3203C525.803 58.8893 529.539 59.681 531.988 60.6953C534.438 61.7096 536.305 63.1569 537.592 65.0371C538.903 66.9173 539.559 68.9831 539.559 71.2344C539.559 73.5104 538.866 75.7246 537.48 77.877C536.12 80.0293 533.955 81.7487 530.986 83.0352C528.042 84.2969 524.022 84.9277 518.926 84.9277C511.727 84.9277 506.593 83.901 503.525 81.8477C500.482 79.7943 498.528 76.875 497.662 73.0898ZM600.529 64.2949V52.9766H626.506V76.1699C621.533 79.5592 617.13 81.8724 613.295 83.1094C609.485 84.3216 604.958 84.9277 599.713 84.9277C593.256 84.9277 587.986 83.8268 583.904 81.625C579.847 79.4232 576.693 76.1452 574.441 71.791C572.215 67.4368 571.102 62.4395 571.102 56.7988C571.102 50.8613 572.326 45.7031 574.775 41.3242C577.225 36.9206 580.812 33.5807 585.537 31.3047C589.223 29.5482 594.184 28.6699 600.418 28.6699C606.43 28.6699 610.92 29.2142 613.889 30.3027C616.882 31.3913 619.356 33.0859 621.311 35.3867C623.29 37.6628 624.774 40.5573 625.764 44.0703L609.547 46.9648C608.879 44.9115 607.741 43.3405 606.133 42.252C604.549 41.1634 602.521 40.6191 600.047 40.6191C596.361 40.6191 593.417 41.9056 591.215 44.4785C589.038 47.0267 587.949 51.0716 587.949 56.6133C587.949 62.5013 589.05 66.707 591.252 69.2305C593.479 71.7539 596.571 73.0156 600.529 73.0156C602.41 73.0156 604.203 72.7435 605.91 72.1992C607.617 71.6549 609.572 70.7272 611.773 69.416V64.2949H600.529ZM679.238 68.043H648.957C649.229 70.4674 649.885 72.2734 650.924 73.4609C652.383 75.168 654.288 76.0215 656.639 76.0215C658.123 76.0215 659.533 75.6504 660.869 74.9082C661.686 74.4382 662.564 73.6094 663.504 72.4219L678.385 73.7949C676.109 77.7533 673.363 80.5983 670.146 82.3301C666.93 84.0371 662.316 84.8906 656.305 84.8906C651.085 84.8906 646.978 84.1608 643.984 82.7012C640.991 81.2168 638.505 78.8789 636.525 75.6875C634.571 72.4714 633.594 68.6986 633.594 64.3691C633.594 58.209 635.561 53.224 639.494 49.4141C643.452 45.6042 648.908 43.6992 655.859 43.6992C661.5 43.6992 665.953 44.5527 669.219 46.2598C672.484 47.9668 674.971 50.4408 676.678 53.6816C678.385 56.9225 679.238 61.1406 679.238 66.3359V68.043ZM663.875 60.8066C663.578 57.8874 662.786 55.7969 661.5 54.5352C660.238 53.2734 658.568 52.6426 656.49 52.6426C654.09 52.6426 652.173 53.5951 650.738 55.5C649.823 56.6875 649.242 58.4564 648.994 60.8066H663.875ZM686.178 44.5898H700.242V51.0098C702.345 48.3874 704.473 46.5195 706.625 45.4062C708.777 44.2682 711.4 43.6992 714.492 43.6992C718.673 43.6992 721.939 44.9486 724.289 47.4473C726.664 49.9212 727.852 53.7559 727.852 58.9512V84H712.674V62.3281C712.674 59.8542 712.216 58.11 711.301 57.0957C710.385 56.0566 709.099 55.5371 707.441 55.5371C705.611 55.5371 704.126 56.2298 702.988 57.6152C701.85 59.0007 701.281 61.487 701.281 65.0742V84H686.178V44.5898Z" fill="white" fill-opacity="0.9"/>
<path d="M349.188 29.5977H377.131C383.217 29.5977 387.769 31.0449 390.787 33.9395C393.83 36.834 395.352 40.9531 395.352 46.2969C395.352 51.7891 393.694 56.0814 390.379 59.1738C387.089 62.2663 382.054 63.8125 375.275 63.8125H366.072V84H349.188V29.5977ZM366.072 52.791H370.191C373.432 52.791 375.708 52.2344 377.02 51.1211C378.331 49.9831 378.986 48.5358 378.986 46.7793C378.986 45.0723 378.417 43.625 377.279 42.4375C376.141 41.25 374.001 40.6562 370.859 40.6562H366.072V52.791ZM416.949 57.3555L402.514 55.834C403.058 53.3105 403.837 51.3314 404.852 49.8965C405.891 48.4368 407.375 47.1751 409.305 46.1113C410.69 45.3444 412.595 44.7507 415.02 44.3301C417.444 43.9095 420.066 43.6992 422.887 43.6992C427.414 43.6992 431.051 43.959 433.797 44.4785C436.543 44.9733 438.831 46.0247 440.662 47.6328C441.949 48.7461 442.963 50.3294 443.705 52.3828C444.447 54.4115 444.818 56.3535 444.818 58.209V75.6133C444.818 77.4688 444.93 78.9284 445.152 79.9922C445.4 81.0312 445.919 82.3672 446.711 84H432.535C431.966 82.9857 431.595 82.2188 431.422 81.6992C431.249 81.1549 431.076 80.3138 430.902 79.1758C428.923 81.0807 426.956 82.4414 425.002 83.2578C422.33 84.3464 419.225 84.8906 415.688 84.8906C410.987 84.8906 407.412 83.8021 404.963 81.625C402.538 79.4479 401.326 76.7637 401.326 73.5723C401.326 70.5788 402.204 68.1172 403.961 66.1875C405.717 64.2578 408.958 62.8229 413.684 61.8828C419.349 60.7448 423.023 59.9531 424.705 59.5078C426.387 59.0378 428.169 58.4316 430.049 57.6895C430.049 55.834 429.665 54.5352 428.898 53.793C428.132 53.0508 426.783 52.6797 424.854 52.6797C422.38 52.6797 420.524 53.0755 419.287 53.8672C418.322 54.4857 417.543 55.6484 416.949 57.3555ZM430.049 65.2969C427.971 66.0391 425.806 66.6947 423.555 67.2637C420.487 68.0801 418.545 68.8841 417.729 69.6758C416.887 70.4922 416.467 71.4199 416.467 72.459C416.467 73.6465 416.875 74.6237 417.691 75.3906C418.533 76.1328 419.757 76.5039 421.365 76.5039C423.048 76.5039 424.606 76.0957 426.041 75.2793C427.501 74.4629 428.527 73.4733 429.121 72.3105C429.74 71.123 430.049 69.5892 430.049 67.709V65.2969ZM451.201 73.0898L466.193 71.6797C466.812 73.4609 467.678 74.735 468.791 75.502C469.904 76.2689 471.389 76.6523 473.244 76.6523C475.273 76.6523 476.844 76.2194 477.957 75.3535C478.823 74.7103 479.256 73.9062 479.256 72.9414C479.256 71.8529 478.687 71.0117 477.549 70.418C476.732 69.9974 474.568 69.4779 471.055 68.8594C465.81 67.944 462.161 67.1029 460.107 66.3359C458.079 65.5443 456.359 64.2207 454.949 62.3652C453.564 60.5098 452.871 58.3945 452.871 56.0195C452.871 53.4219 453.626 51.1829 455.135 49.3027C456.644 47.4225 458.722 46.0247 461.369 45.1094C464.016 44.1693 467.566 43.6992 472.02 43.6992C476.72 43.6992 480.184 44.0579 482.41 44.7754C484.661 45.4928 486.529 46.6061 488.014 48.1152C489.523 49.6243 490.772 51.6654 491.762 54.2383L477.438 55.6484C477.066 54.3867 476.448 53.459 475.582 52.8652C474.395 52.0736 472.96 51.6777 471.277 51.6777C469.57 51.6777 468.321 51.987 467.529 52.6055C466.762 53.1992 466.379 53.929 466.379 54.7949C466.379 55.7598 466.874 56.4896 467.863 56.9844C468.853 57.4792 471.005 57.9245 474.32 58.3203C479.342 58.8893 483.078 59.681 485.527 60.6953C487.977 61.7096 489.844 63.1569 491.131 65.0371C492.442 66.9173 493.098 68.9831 493.098 71.2344C493.098 73.5104 492.405 75.7246 491.02 77.877C489.659 80.0293 487.494 81.7487 484.525 83.0352C481.581 84.2969 477.561 84.9277 472.465 84.9277C465.266 84.9277 460.132 83.901 457.064 81.8477C454.021 79.7943 452.067 76.875 451.201 73.0898ZM497.662 73.0898L512.654 71.6797C513.273 73.4609 514.139 74.735 515.252 75.502C516.365 76.2689 517.85 76.6523 519.705 76.6523C521.734 76.6523 523.305 76.2194 524.418 75.3535C525.284 74.7103 525.717 73.9062 525.717 72.9414C525.717 71.8529 525.148 71.0117 524.01 70.418C523.193 69.9974 521.029 69.4779 517.516 68.8594C512.271 67.944 508.622 67.1029 506.568 66.3359C504.54 65.5443 502.82 64.2207 501.41 62.3652C500.025 60.5098 499.332 58.3945 499.332 56.0195C499.332 53.4219 500.087 51.1829 501.596 49.3027C503.105 47.4225 505.183 46.0247 507.83 45.1094C510.477 44.1693 514.027 43.6992 518.48 43.6992C523.181 43.6992 526.645 44.0579 528.871 44.7754C531.122 45.4928 532.99 46.6061 534.475 48.1152C535.984 49.6243 537.233 51.6654 538.223 54.2383L523.898 55.6484C523.527 54.3867 522.909 53.459 522.043 52.8652C520.855 52.0736 519.421 51.6777 517.738 51.6777C516.031 51.6777 514.782 51.987 513.99 52.6055C513.223 53.1992 512.84 53.929 512.84 54.7949C512.84 55.7598 513.335 56.4896 514.324 56.9844C515.314 57.4792 517.466 57.9245 520.781 58.3203C525.803 58.8893 529.539 59.681 531.988 60.6953C534.438 61.7096 536.305 63.1569 537.592 65.0371C538.903 66.9173 539.559 68.9831 539.559 71.2344C539.559 73.5104 538.866 75.7246 537.48 77.877C536.12 80.0293 533.955 81.7487 530.986 83.0352C528.042 84.2969 524.022 84.9277 518.926 84.9277C511.727 84.9277 506.593 83.901 503.525 81.8477C500.482 79.7943 498.528 76.875 497.662 73.0898ZM600.529 64.2949V52.9766H626.506V76.1699C621.533 79.5592 617.13 81.8724 613.295 83.1094C609.485 84.3216 604.958 84.9277 599.713 84.9277C593.256 84.9277 587.986 83.8268 583.904 81.625C579.847 79.4232 576.693 76.1452 574.441 71.791C572.215 67.4368 571.102 62.4395 571.102 56.7988C571.102 50.8613 572.326 45.7031 574.775 41.3242C577.225 36.9206 580.812 33.5807 585.537 31.3047C589.223 29.5482 594.184 28.6699 600.418 28.6699C606.43 28.6699 610.92 29.2142 613.889 30.3027C616.882 31.3913 619.356 33.0859 621.311 35.3867C623.29 37.6628 624.774 40.5573 625.764 44.0703L609.547 46.9648C608.879 44.9115 607.741 43.3405 606.133 42.252C604.549 41.1634 602.521 40.6191 600.047 40.6191C596.361 40.6191 593.417 41.9056 591.215 44.4785C589.038 47.0267 587.949 51.0716 587.949 56.6133C587.949 62.5013 589.05 66.707 591.252 69.2305C593.479 71.7539 596.571 73.0156 600.529 73.0156C602.41 73.0156 604.203 72.7435 605.91 72.1992C607.617 71.6549 609.572 70.7272 611.773 69.416V64.2949H600.529ZM679.238 68.043H648.957C649.229 70.4674 649.885 72.2734 650.924 73.4609C652.383 75.168 654.288 76.0215 656.639 76.0215C658.123 76.0215 659.533 75.6504 660.869 74.9082C661.686 74.4382 662.564 73.6094 663.504 72.4219L678.385 73.7949C676.109 77.7533 673.363 80.5983 670.146 82.3301C666.93 84.0371 662.316 84.8906 656.305 84.8906C651.085 84.8906 646.978 84.1608 643.984 82.7012C640.991 81.2168 638.505 78.8789 636.525 75.6875C634.571 72.4714 633.594 68.6986 633.594 64.3691C633.594 58.209 635.561 53.224 639.494 49.4141C643.452 45.6042 648.908 43.6992 655.859 43.6992C661.5 43.6992 665.953 44.5527 669.219 46.2598C672.484 47.9668 674.971 50.4408 676.678 53.6816C678.385 56.9225 679.238 61.1406 679.238 66.3359V68.043ZM663.875 60.8066C663.578 57.8874 662.786 55.7969 661.5 54.5352C660.238 53.2734 658.568 52.6426 656.49 52.6426C654.09 52.6426 652.173 53.5951 650.738 55.5C649.823 56.6875 649.242 58.4564 648.994 60.8066H663.875ZM686.178 44.5898H700.242V51.0098C702.345 48.3874 704.473 46.5195 706.625 45.4062C708.777 44.2682 711.4 43.6992 714.492 43.6992C718.673 43.6992 721.939 44.9486 724.289 47.4473C726.664 49.9212 727.852 53.7559 727.852 58.9512V84H712.674V62.3281C712.674 59.8542 712.216 58.11 711.301 57.0957C710.385 56.0566 709.099 55.5371 707.441 55.5371C705.611 55.5371 704.126 56.2298 702.988 57.6152C701.85 59.0007 701.281 61.487 701.281 65.0742V84H686.178V44.5898Z" fill="url(#paint0_linear_1_3463)"/>
<path d="M112.149 122.864H119.253C123.381 122.864 125.469 124.616 125.469 128.12C125.469 131.648 123.381 133.424 119.205 133.424H114.957V140H112.149V122.864ZM114.957 125.264V131.024H119.037C120.285 131.024 121.197 130.784 121.773 130.352C122.349 129.896 122.637 129.152 122.637 128.12C122.637 127.088 122.325 126.368 121.749 125.936C121.173 125.48 120.261 125.264 119.037 125.264H114.957ZM133.275 127.256C135.099 127.256 136.467 127.712 137.331 128.624C138.099 129.416 138.483 130.568 138.483 132.08V140H135.939V138.368C135.459 138.992 134.859 139.448 134.163 139.784C133.371 140.144 132.435 140.336 131.355 140.336C130.059 140.336 129.051 140 128.307 139.352C127.539 138.68 127.155 137.84 127.155 136.808C127.155 135.416 127.683 134.336 128.787 133.592C129.795 132.872 131.211 132.488 133.035 132.44L135.747 132.368V131.888C135.747 130.256 134.859 129.464 133.083 129.464C132.315 129.464 131.715 129.584 131.259 129.872C130.731 130.184 130.371 130.664 130.227 131.312L127.515 131.096C127.779 129.728 128.451 128.72 129.531 128.096C130.443 127.52 131.691 127.256 133.275 127.256ZM135.747 134.336L133.227 134.408C131.043 134.456 129.963 135.224 129.963 136.712C129.963 137.144 130.131 137.504 130.515 137.792C130.899 138.08 131.379 138.248 131.979 138.248C133.035 138.248 133.923 137.936 134.643 137.336C135.363 136.712 135.747 135.92 135.747 134.96V134.336ZM146.05 127.256C149.314 127.256 151.114 128.552 151.402 131.192H148.738C148.546 130.568 148.258 130.112 147.874 129.872C147.466 129.608 146.842 129.488 146.002 129.488C145.282 129.488 144.73 129.584 144.37 129.8C143.938 130.016 143.746 130.352 143.746 130.832C143.746 131.216 144.058 131.576 144.73 131.864C145.138 132.032 145.954 132.272 147.202 132.584C148.594 132.92 149.65 133.304 150.322 133.76C151.306 134.384 151.81 135.272 151.81 136.376C151.81 139.016 149.938 140.336 146.218 140.336C142.762 140.336 140.914 138.872 140.65 135.968H143.314C143.458 136.76 143.746 137.312 144.154 137.648C144.562 137.936 145.21 138.104 146.122 138.104C148.042 138.104 149.002 137.576 149.002 136.568C149.002 135.992 148.642 135.536 147.922 135.2C147.538 135.008 146.722 134.792 145.474 134.504C144.01 134.168 142.978 133.808 142.378 133.424C141.418 132.824 140.938 131.984 140.938 130.904C140.938 129.752 141.394 128.864 142.354 128.24C143.29 127.568 144.514 127.256 146.05 127.256ZM158.659 127.256C161.923 127.256 163.723 128.552 164.011 131.192H161.347C161.155 130.568 160.867 130.112 160.483 129.872C160.075 129.608 159.451 129.488 158.611 129.488C157.891 129.488 157.339 129.584 156.979 129.8C156.547 130.016 156.355 130.352 156.355 130.832C156.355 131.216 156.667 131.576 157.339 131.864C157.747 132.032 158.563 132.272 159.811 132.584C161.203 132.92 162.259 133.304 162.931 133.76C163.915 134.384 164.419 135.272 164.419 136.376C164.419 139.016 162.547 140.336 158.827 140.336C155.371 140.336 153.523 138.872 153.259 135.968H155.923C156.067 136.76 156.355 137.312 156.763 137.648C157.171 137.936 157.819 138.104 158.731 138.104C160.651 138.104 161.611 137.576 161.611 136.568C161.611 135.992 161.251 135.536 160.531 135.2C160.147 135.008 159.331 134.792 158.083 134.504C156.619 134.168 155.587 133.808 154.987 133.424C154.027 132.824 153.547 131.984 153.547 130.904C153.547 129.752 154.003 128.864 154.963 128.24C155.899 127.568 157.123 127.256 158.659 127.256ZM174.268 122.528C176.476 122.528 178.204 123.008 179.476 123.992C180.7 124.952 181.468 126.368 181.78 128.288H178.948C178.708 127.184 178.18 126.368 177.412 125.816C176.62 125.264 175.564 125 174.268 125C172.66 125 171.388 125.528 170.452 126.632C169.42 127.784 168.916 129.392 168.916 131.504C168.916 133.52 169.372 135.08 170.284 136.16C171.268 137.312 172.804 137.888 174.892 137.888C175.708 137.888 176.476 137.792 177.196 137.6C177.868 137.408 178.468 137.144 179.044 136.808V133.28H174.508V130.88H181.852V138.128C180.94 138.848 179.908 139.376 178.732 139.76C177.484 140.144 176.116 140.336 174.58 140.336C171.844 140.336 169.732 139.472 168.22 137.744C166.804 136.136 166.108 134.048 166.108 131.504C166.108 128.936 166.804 126.824 168.22 125.168C169.708 123.392 171.724 122.528 174.268 122.528ZM190.009 127.256C192.049 127.256 193.609 127.928 194.689 129.32C195.673 130.568 196.177 132.32 196.177 134.552H186.889C186.985 135.704 187.297 136.592 187.825 137.192C188.353 137.792 189.121 138.104 190.105 138.104C190.945 138.104 191.617 137.912 192.145 137.528C192.553 137.216 192.913 136.712 193.249 136.016H195.985C195.697 137.168 195.121 138.152 194.257 138.92C193.153 139.856 191.785 140.336 190.129 140.336C188.281 140.336 186.817 139.76 185.737 138.632C184.585 137.456 184.009 135.848 184.009 133.784C184.009 131.936 184.537 130.4 185.641 129.152C186.697 127.88 188.161 127.256 190.009 127.256ZM190.081 129.488C189.169 129.488 188.473 129.728 187.945 130.256C187.441 130.76 187.105 131.504 186.937 132.488H193.321C193.081 130.472 192.001 129.488 190.081 129.488ZM204.754 127.256C207.85 127.256 209.41 128.936 209.41 132.344V140H206.674V132.584C206.674 130.544 205.738 129.536 203.866 129.536C203.194 129.536 202.594 129.776 202.09 130.256C201.514 130.784 201.178 131.552 201.082 132.536V140H198.346V127.592H201.082V129.032C201.562 128.456 202.114 128 202.714 127.712C203.338 127.4 204.01 127.256 204.754 127.256ZM215.388 120.992H230.412V129.752H215.388V120.992ZM227.94 127.64V126.344H217.884V127.64H227.94ZM217.884 124.376H227.94V123.104H217.884V124.376ZM221.868 133.28H212.148V131.024H233.58V133.28H224.388V135.296H231.012V137.504H224.388V139.808C225.468 139.904 226.716 139.952 228.108 139.952C230.244 139.952 232.044 139.904 233.508 139.856L232.812 142.208C231.132 142.208 229.62 142.184 228.276 142.16C224.292 142.136 221.58 141.824 220.092 141.248C218.94 140.768 217.932 139.832 217.02 138.488C216.108 140.096 214.956 141.44 213.588 142.52L211.956 140.432C214.116 138.752 215.556 136.544 216.324 133.76L218.7 134.168C218.484 135.008 218.22 135.8 217.932 136.544C218.844 137.96 219.9 138.848 221.076 139.232C221.316 139.304 221.58 139.376 221.868 139.448V133.28ZM235.932 129.944H257.748V132.44H235.932V129.944ZM269.58 127.472H272.124V142.496H269.58V127.472ZM269.748 120.272H271.956C273.924 123.488 277.332 126.296 282.132 128.72L280.62 131C276.252 128.744 272.988 125.96 270.852 122.624C268.284 126.248 265.02 129.032 261.084 131L259.572 128.72C263.988 126.56 267.372 123.728 269.748 120.272ZM291.372 131.192H296.532V127.064H299.076V131.192H304.572V133.64H299.076V139.256H305.604V141.704H290.508V139.256H296.532V133.64H291.372V131.192ZM287.172 133.592C286.524 134.216 285.852 134.816 285.156 135.416L283.548 133.328C286.236 131.096 288.396 128.552 290.004 125.72H284.412V123.272H291.204C291.66 122.216 292.044 121.136 292.38 120.032L294.972 120.344C294.684 121.352 294.348 122.312 293.988 123.272H305.604V125.72H292.884C291.972 127.544 290.892 129.248 289.644 130.832V142.568H287.172V133.592ZM316.38 137.24V139.592C314.028 140.48 311.364 141.2 308.364 141.752L308.052 139.304C311.22 138.776 314.004 138.104 316.38 137.24ZM311.604 120.128L314.004 121.088C312.9 123.896 311.796 126.2 310.668 127.976L312.972 127.688C313.356 126.872 313.788 126.032 314.22 125.12L316.452 125.984C314.58 129.608 312.972 132.272 311.676 134C313.14 133.688 314.628 133.28 316.14 132.752V134.984C313.524 135.872 311.052 136.472 308.724 136.76L308.076 134.504C308.508 134.312 308.892 134.072 309.204 133.784C309.876 133.064 310.74 131.768 311.772 129.944L308.364 130.4L307.764 128.12C308.148 127.952 308.484 127.64 308.796 127.208C309.876 125.048 310.812 122.696 311.604 120.128ZM328.068 124.28L328.428 126.584L322.5 127.4C322.524 128.288 322.572 129.128 322.668 129.92L328.716 128.984L329.1 131.336L322.956 132.296C322.956 132.464 322.98 132.632 323.028 132.8C323.22 133.88 323.46 134.84 323.748 135.704C324.78 134.696 325.716 133.544 326.556 132.296L328.548 133.64C327.372 135.344 326.124 136.808 324.804 138.032C325.452 138.992 326.028 139.496 326.556 139.496C327.084 139.496 327.516 138.416 327.852 136.256L329.988 137.648C329.268 140.72 328.236 142.256 326.844 142.256C325.596 142.232 324.444 141.488 323.364 140.048C323.22 139.856 323.076 139.688 322.98 139.52C321.3 140.72 319.5 141.608 317.604 142.184L316.14 140.168C318.252 139.496 320.148 138.56 321.828 137.336C321.396 136.352 321.06 135.272 320.796 134.12C320.676 133.64 320.58 133.16 320.508 132.68L316.476 133.304L316.116 130.952L320.172 130.304C320.076 129.488 320.028 128.624 319.98 127.76L316.884 128.192L316.524 125.888L319.932 125.408V120.272H322.452V125.072L328.068 124.28ZM325.14 120.176C326.268 121.256 327.156 122.192 327.78 122.96L325.812 124.328C325.188 123.44 324.324 122.456 323.244 121.376L325.14 120.176ZM336.924 126.848C335.988 128.96 334.788 130.76 333.324 132.2L331.668 130.112C333.828 127.856 335.268 124.832 336.012 121.016L338.58 121.496C338.364 122.528 338.124 123.512 337.836 124.424H342.012V120.488H344.532V124.424H352.14V126.848H344.532V131.552H351.684V133.976H344.532V139.208H353.7V141.704H332.34V139.208H342.012V133.976H335.244V131.552H342.012V126.848H336.924ZM373.068 120.08C374.148 120.896 375.06 121.736 375.828 122.576L374.724 123.704H377.58V126.08H370.524C370.716 128.864 371.004 131.024 371.388 132.512C371.46 132.848 371.556 133.16 371.652 133.496C372.612 131.816 373.404 129.872 374.028 127.712L376.308 128.696C375.372 131.744 374.172 134.336 372.708 136.472C372.924 136.952 373.164 137.384 373.404 137.744C374.076 138.776 374.604 139.304 374.964 139.304C375.204 139.304 375.492 138.152 375.804 135.848L378.06 137.072C377.436 140.456 376.548 142.16 375.348 142.16C374.292 142.16 373.188 141.44 372.012 140.024C371.676 139.592 371.34 139.112 371.052 138.584C369.468 140.312 367.644 141.632 365.58 142.544L364.14 140.432C366.396 139.424 368.316 137.96 369.9 136.04C369.564 135.2 369.276 134.288 369.012 133.304C368.484 131.384 368.148 128.96 367.956 126.08H360.468V129.416H366.348C366.276 133.88 366.036 136.664 365.628 137.768C365.244 138.776 364.404 139.28 363.108 139.304C362.532 139.304 361.884 139.256 361.164 139.184L360.396 136.904C361.356 136.976 362.148 137.024 362.82 137.024C363.204 137 363.468 136.76 363.588 136.28C363.732 135.728 363.804 134.216 363.852 131.768H360.468C360.348 136.232 359.364 139.808 357.516 142.52L355.62 140.816C357.108 138.632 357.876 135.584 357.948 131.696V123.704H367.836C367.788 122.6 367.788 121.424 367.788 120.224H370.332C370.332 121.448 370.356 122.6 370.404 123.704H373.788C373.188 123.032 372.42 122.312 371.484 121.592L373.068 120.08ZM380.532 121.04H387.084V122.912C386.652 124.832 386.172 126.824 385.62 128.888C386.556 130.928 387.06 132.704 387.156 134.192C387.156 135.296 386.94 136.088 386.556 136.544C385.98 137.144 385.02 137.456 383.628 137.456L382.884 135.152C383.508 135.224 384.036 135.272 384.444 135.272C384.612 135.224 384.732 135.152 384.804 135.008C384.852 134.864 384.9 134.576 384.9 134.192C384.9 132.728 384.372 131.072 383.364 129.248C383.988 127.04 384.468 125.024 384.804 123.248H382.836V142.28H380.532V121.04ZM389.028 121.592C389.868 123.032 390.516 124.304 390.972 125.384L389.124 126.632C388.644 125.456 387.996 124.16 387.204 122.72L389.028 121.592ZM397.068 139.856C398.796 139.856 400.428 139.832 401.964 139.784L401.34 142.136H396.876C396.204 142.136 395.532 142.112 394.86 142.088C393.876 142.064 392.988 141.92 392.196 141.656C391.428 141.368 390.804 140.912 390.3 140.264C390.012 139.928 389.748 139.784 389.532 139.784C389.148 139.784 388.308 140.696 387.06 142.52L385.644 140.624C386.748 139.136 387.684 138.152 388.5 137.696V130.328H386.82V128.12H390.804V130.4C392.196 128.84 393.228 126.92 393.948 124.616H391.308V122.36H394.524C394.644 121.688 394.74 121.016 394.836 120.32L397.26 120.632C397.116 121.232 396.996 121.808 396.876 122.36H401.748V124.616H396.276C396.084 125.24 395.868 125.84 395.652 126.416H400.932V137.048C400.932 138.32 400.26 138.968 398.916 139.016H397.356L396.78 136.904C397.284 136.976 397.764 137.024 398.22 137.024C398.556 137.024 398.724 136.784 398.724 136.328V135.152H395.388V139.088H393.252V130.784C392.82 131.312 392.388 131.768 391.956 132.152L390.804 130.688V138.152C391.188 138.632 391.692 139.016 392.292 139.328C392.94 139.568 393.684 139.736 394.548 139.808C395.388 139.832 396.228 139.856 397.068 139.856ZM395.388 131.816V133.184H398.724V131.816H395.388ZM398.724 129.848V128.336H395.388V129.848H398.724ZM404.148 124.712H407.436V120.296H409.932V124.712H412.62V127.136H409.932V128.024C410.988 129.056 412.068 130.208 413.148 131.456L411.684 133.664C411.012 132.464 410.436 131.432 409.932 130.592V142.4H407.436V131.528C406.692 133.496 405.78 135.32 404.7 137L403.62 134.264C405.3 132.2 406.524 129.824 407.316 127.136H404.148V124.712ZM411.132 140.864C412.092 139.424 412.788 137.888 413.172 136.304C413.484 134.936 413.652 132.896 413.652 130.184V121.04H422.1V139.256C422.1 139.472 422.172 139.592 422.34 139.592H423.06C423.252 139.592 423.396 139.544 423.492 139.448C423.588 139.352 423.636 139.208 423.684 139.04C423.78 138.704 423.828 137.24 423.828 134.696L426.132 135.416C426.132 137.24 426.06 138.632 425.964 139.544C425.868 140.456 425.628 141.08 425.244 141.464C424.86 141.776 424.236 141.944 423.396 141.944H422.316C420.468 141.944 419.556 141.128 419.556 139.544V123.392H416.148V130.184C416.148 132.896 415.932 135.2 415.5 137.12C415.092 139.04 414.324 140.912 413.196 142.688L411.132 140.864ZM437.676 135.056H440.172V139.376H445.212V135.512H447.684V142.52H445.212V141.68H430.356V135.56H432.828V139.376H437.676V135.056ZM448.908 121.736V125.936H446.508V123.92H431.196V126.008H428.796V121.736H437.292C437.1 121.352 436.884 120.992 436.644 120.656L439.356 120.224C439.548 120.68 439.764 121.184 439.956 121.736H448.908ZM438.228 124.064C439.164 125.144 439.908 126.08 440.436 126.872L438.636 128.12C438.084 127.256 437.34 126.272 436.428 125.192L438.228 124.064ZM443.532 124.664L445.38 126.056C443.364 128.432 440.82 130.448 437.772 132.08H441.684C442.116 132.08 442.404 131.984 442.596 131.816C442.836 131.6 442.98 130.976 443.076 129.92L445.308 130.664C445.116 132.44 444.756 133.496 444.276 133.832C443.796 134.168 443.1 134.336 442.14 134.336H436.74C435.78 134.336 435.108 134.048 434.724 133.52C432.948 134.24 431.052 134.888 429.036 135.416L428.052 133.232C430.332 132.656 432.42 131.96 434.316 131.144V126.848H436.644V130.04C439.428 128.552 441.708 126.752 443.532 124.664ZM446.004 127.136C447.588 128.816 448.836 130.304 449.7 131.576L447.708 132.944C446.82 131.6 445.644 130.088 444.18 128.456L446.004 127.136ZM431.676 125.72L433.932 126.176C433.308 128.384 432.42 130.304 431.268 131.912L429.132 130.568C430.332 129.032 431.196 127.424 431.676 125.72ZM460.284 128.48V141.248H457.98V140.144H456.108V141.704H453.804V132.944C453.468 133.472 453.132 133.976 452.796 134.48L451.548 132.44C453.156 129.872 454.236 126.992 454.812 123.776H452.268V121.376H460.668V123.776H457.164C456.852 125.432 456.444 126.992 455.916 128.48H460.284ZM456.108 137.864H457.98V130.736H456.108V137.864ZM462.78 124.712L465.228 124.856L464.244 130.52H468.636L469.692 123.392H461.532V121.04H472.404L471.156 130.52H473.556C473.556 136.568 473.196 140.072 472.5 141.008C471.78 141.92 470.292 142.4 468.036 142.4C467.364 142.4 466.692 142.352 465.972 142.28L465.252 139.856C466.308 140 467.052 140.072 467.46 140.072C469.236 140.072 470.292 139.712 470.628 139.016C470.988 138.296 471.18 136.256 471.18 132.848H461.484L462.78 124.712ZM461.028 135.176H470.004V137.528H461.028V135.176ZM484.86 124.184V141.008H482.46V139.808H478.908V141.704H476.508V124.184H478.812C479.244 122.912 479.556 121.592 479.748 120.224L482.268 120.56C482.004 121.856 481.644 123.08 481.212 124.184H484.86ZM478.908 137.504H482.46V132.968H478.908V137.504ZM478.908 130.736H482.46V126.536H478.908V130.736ZM489.228 130.016C490.764 131.96 491.94 133.664 492.78 135.152L490.764 136.544C489.876 134.96 488.676 133.208 487.188 131.288L489.228 130.016ZM497.22 124.184C497.22 132.584 497.1 137.768 496.86 139.736C496.62 141.416 495.468 142.256 493.404 142.256C492.924 142.256 492.06 142.208 490.812 142.112L490.212 139.832C491.268 139.904 492.204 139.952 492.996 139.952C493.86 139.952 494.364 139.472 494.508 138.536C494.652 137.384 494.724 133.424 494.772 126.632H488.964C488.316 128.072 487.548 129.368 486.66 130.52L485.148 128.528C486.732 126.272 487.788 123.488 488.364 120.2L490.836 120.512C490.596 121.808 490.284 123.032 489.924 124.184H497.22ZM509.604 124.304H501.636V121.904H520.14V124.304H512.148V138.656H521.604V141.08H500.124V138.656H509.604V124.304ZM542.436 121.016V135.656H545.604V137.984H540.156C542.052 138.68 543.804 139.472 545.436 140.336L544.044 142.52C541.716 141.104 539.34 140 536.94 139.184L537.756 137.984H531.492L532.668 139.016C530.82 140.36 528.54 141.536 525.828 142.568L524.292 140.552C526.452 139.784 528.324 138.944 529.908 137.984H524.1V135.656H527.268V121.016H542.436ZM529.788 135.656H539.916V134.048H529.788V135.656ZM529.788 132.08H539.916V130.448H529.788V132.08ZM529.788 128.48H539.916V126.824H529.788V128.48ZM529.788 124.88H539.916V123.368H529.788V124.88ZM551.508 136.376C552.156 136.376 552.708 136.64 553.14 137.168C553.548 137.696 553.764 138.392 553.764 139.232C553.764 140.504 553.38 141.608 552.66 142.568C551.916 143.504 550.908 144.152 549.66 144.512V142.928C550.308 142.688 550.86 142.304 551.316 141.776C551.724 141.2 551.94 140.648 551.94 140.072C551.796 140.12 551.604 140.168 551.34 140.168C550.812 140.168 550.38 139.976 550.02 139.616C549.66 139.256 549.492 138.8 549.492 138.272C549.492 137.696 549.684 137.24 550.068 136.904C550.428 136.544 550.908 136.376 551.508 136.376ZM572.412 121.04H593.316V123.392H584.1V124.856H591.372V134.888H583.74C583.5 136.16 583.116 137.24 582.612 138.104C585.876 139.352 589.692 140.024 594.108 140.168L593.46 142.592C588.684 142.376 584.532 141.488 581.004 139.952C579.276 141.296 576.54 142.16 572.844 142.568L571.74 140.264C574.716 140.12 576.972 139.592 578.508 138.704C577.284 138.032 576.156 137.264 575.124 136.4L577.044 135.08C578.004 135.824 579.084 136.496 580.26 137.096C580.668 136.472 580.98 135.728 581.172 134.888H574.38V124.856H581.604V123.392H572.412V121.04ZM588.9 132.704V130.88H584.1V131.336L584.028 132.704H588.9ZM581.532 132.704C581.58 132.248 581.604 131.792 581.604 131.336V130.88H576.876V132.704H581.532ZM576.876 128.84H581.604V127.016H576.876V128.84ZM584.1 127.016V128.84H588.9V127.016H584.1ZM617.196 122.408V127.952H614.652V124.832H599.028V127.928H596.484V122.408H605.364C605.076 121.736 604.74 121.136 604.38 120.56L607.212 120.08C607.548 120.776 607.86 121.544 608.196 122.408H617.196ZM596.196 129.056H602.796C603.468 127.808 604.092 126.584 604.692 125.384L607.284 126.176L605.772 129.056H617.556V131.456H612.996C612.06 133.736 611.052 135.56 609.972 136.952C612.3 137.936 614.7 139.088 617.172 140.432L615.468 142.64C613.044 141.2 610.62 139.928 608.172 138.824C605.46 141.176 601.932 142.4 597.588 142.52L596.124 140.192C600.012 140.192 603.156 139.352 605.556 137.672C603.444 136.784 601.308 135.992 599.172 135.32C599.988 134.024 600.756 132.752 601.476 131.456H596.196V129.056ZM604.428 131.456C603.804 132.536 603.228 133.496 602.7 134.336C604.26 134.768 605.868 135.32 607.5 135.944C608.604 134.696 609.516 133.184 610.236 131.456H604.428ZM629.964 120.224H631.74C634.74 123.296 638.196 125.72 642.108 127.496L640.86 129.728C639.708 129.176 638.604 128.576 637.548 127.928V130.088H632.124V133.448H638.796V135.872H632.124V139.424H640.98V141.872H620.748V139.424H629.58V135.872H622.884V133.448H629.58V130.088H624.156V127.904C623.076 128.576 621.948 129.2 620.748 129.776L619.524 127.544C623.7 125.576 627.18 123.152 629.964 120.224ZM624.54 127.664H637.14C634.764 126.176 632.676 124.448 630.852 122.504C629.1 124.4 626.988 126.128 624.54 127.664ZM652.86 124.184V141.008H650.46V139.808H646.908V141.704H644.508V124.184H646.812C647.244 122.912 647.556 121.592 647.748 120.224L650.268 120.56C650.004 121.856 649.644 123.08 649.212 124.184H652.86ZM646.908 137.504H650.46V132.968H646.908V137.504ZM646.908 130.736H650.46V126.536H646.908V130.736ZM657.228 130.016C658.764 131.96 659.94 133.664 660.78 135.152L658.764 136.544C657.876 134.96 656.676 133.208 655.188 131.288L657.228 130.016ZM665.22 124.184C665.22 132.584 665.1 137.768 664.86 139.736C664.62 141.416 663.468 142.256 661.404 142.256C660.924 142.256 660.06 142.208 658.812 142.112L658.212 139.832C659.268 139.904 660.204 139.952 660.996 139.952C661.86 139.952 662.364 139.472 662.508 138.536C662.652 137.384 662.724 133.424 662.772 126.632H656.964C656.316 128.072 655.548 129.368 654.66 130.52L653.148 128.528C654.732 126.272 655.788 123.488 656.364 120.2L658.836 120.512C658.596 121.808 658.284 123.032 657.924 124.184H665.22ZM677.676 135.056H680.172V139.376H685.212V135.512H687.684V142.52H685.212V141.68H670.356V135.56H672.828V139.376H677.676V135.056ZM688.908 121.736V125.936H686.508V123.92H671.196V126.008H668.796V121.736H677.292C677.1 121.352 676.884 120.992 676.644 120.656L679.356 120.224C679.548 120.68 679.764 121.184 679.956 121.736H688.908ZM678.228 124.064C679.164 125.144 679.908 126.08 680.436 126.872L678.636 128.12C678.084 127.256 677.34 126.272 676.428 125.192L678.228 124.064ZM683.532 124.664L685.38 126.056C683.364 128.432 680.82 130.448 677.772 132.08H681.684C682.116 132.08 682.404 131.984 682.596 131.816C682.836 131.6 682.98 130.976 683.076 129.92L685.308 130.664C685.116 132.44 684.756 133.496 684.276 133.832C683.796 134.168 683.1 134.336 682.14 134.336H676.74C675.78 134.336 675.108 134.048 674.724 133.52C672.948 134.24 671.052 134.888 669.036 135.416L668.052 133.232C670.332 132.656 672.42 131.96 674.316 131.144V126.848H676.644V130.04C679.428 128.552 681.708 126.752 683.532 124.664ZM686.004 127.136C687.588 128.816 688.836 130.304 689.7 131.576L687.708 132.944C686.82 131.6 685.644 130.088 684.18 128.456L686.004 127.136ZM671.676 125.72L673.932 126.176C673.308 128.384 672.42 130.304 671.268 131.912L669.132 130.568C670.332 129.032 671.196 127.424 671.676 125.72ZM700.284 128.48V141.248H697.98V140.144H696.108V141.704H693.804V132.944C693.468 133.472 693.132 133.976 692.796 134.48L691.548 132.44C693.156 129.872 694.236 126.992 694.812 123.776H692.268V121.376H700.668V123.776H697.164C696.852 125.432 696.444 126.992 695.916 128.48H700.284ZM696.108 137.864H697.98V130.736H696.108V137.864ZM702.78 124.712L705.228 124.856L704.244 130.52H708.636L709.692 123.392H701.532V121.04H712.404L711.156 130.52H713.556C713.556 136.568 713.196 140.072 712.5 141.008C711.78 141.92 710.292 142.4 708.036 142.4C707.364 142.4 706.692 142.352 705.972 142.28L705.252 139.856C706.308 140 707.052 140.072 707.46 140.072C709.236 140.072 710.292 139.712 710.628 139.016C710.988 138.296 711.18 136.256 711.18 132.848H701.484L702.78 124.712ZM701.028 135.176H710.004V137.528H701.028V135.176ZM716.076 121.568H737.7V123.992H734.724V139.64C734.724 141.416 733.86 142.328 732.18 142.328H728.124L727.548 139.904C728.844 140 730.116 140.048 731.316 140.048C731.892 140.048 732.204 139.688 732.204 139.016V123.992H716.076V121.568ZM728.556 126.872V136.28H721.044V138.2H718.644V126.872H728.556ZM721.044 134.024H726.18V129.104H721.044V134.024ZM744.66 120.056L747.036 121.184C746.508 122.888 745.812 124.52 744.948 126.08V142.544H742.404V129.968C741.756 130.784 741.06 131.6 740.34 132.368L739.524 129.68C741.828 126.968 743.556 123.752 744.66 120.056ZM747.9 121.256H759.612V129.368H754.98V131.264H761.604V133.712H757.164C758.34 135.776 759.972 137.576 762.084 139.136L760.452 141.32C758.316 139.28 756.54 136.736 755.148 133.712H754.98V142.52H752.484V133.712H752.292C750.852 136.976 749.028 139.52 746.868 141.344L745.452 139.088C747.42 137.696 749.028 135.92 750.3 133.712H746.1V131.264H752.484V129.368H747.9V121.256ZM757.164 126.968V123.656H750.348V126.968H757.164ZM766.884 142.28H764.484L763.932 139.856C764.652 139.952 765.348 140 766.02 140C766.548 140 766.812 139.712 766.812 139.184V134.384C765.948 134.672 765.06 134.96 764.196 135.2L763.572 132.68C764.676 132.464 765.756 132.2 766.812 131.864V127.04H764.052V124.616H766.812V120.368H769.332V124.616H771.684V127.04H769.332V130.976C770.196 130.64 771.036 130.256 771.852 129.872V132.368C771.036 132.752 770.196 133.112 769.332 133.448V139.832C769.332 141.464 768.516 142.28 766.884 142.28ZM782.964 125.36H775.284V129.152H782.964V125.36ZM775.26 131.552C775.164 135.8 774.156 139.472 772.212 142.544L770.316 140.84C771.948 138.296 772.788 135.008 772.812 130.976V122.984H777.828C777.54 122.12 777.204 121.328 776.82 120.56L779.484 120.128C779.796 120.992 780.084 121.928 780.372 122.984H785.388V131.552H775.26ZM800.796 133.832H798.924L798.372 131.528C798.948 131.624 799.476 131.696 799.98 131.696C800.34 131.696 800.532 131.384 800.532 130.76V125.384H803.028V131.36C803.028 132.992 802.284 133.832 800.796 133.832ZM790.596 127.76C790.092 128.288 789.588 128.768 789.108 129.224L787.524 127.304C789.492 125.672 791.196 123.32 792.684 120.272L795.132 120.824C794.484 122.192 793.788 123.464 793.044 124.616V133.76H790.596V127.76ZM798.108 120.248L800.484 120.8C800.244 121.304 800.004 121.784 799.764 122.264H809.1V123.8C808.788 125 808.404 126.176 807.924 127.352L805.716 126.728C806.052 126.08 806.364 125.336 806.604 124.52H798.396C797.508 125.816 796.548 126.92 795.516 127.88L793.98 126.008C795.564 124.64 796.932 122.72 798.108 120.248ZM790.14 134.768L792.564 135.248C791.988 137.648 791.172 139.712 790.116 141.488L788.004 140.12C789.012 138.44 789.708 136.64 790.14 134.768ZM802.332 142.16H796.284C794.556 142.16 793.716 141.224 793.716 139.376V134.576H796.26V138.848C796.26 139.472 796.524 139.784 797.052 139.784H801.876C802.26 139.784 802.548 139.64 802.764 139.376C803.004 139.088 803.148 138.272 803.22 136.88L805.596 137.648C805.404 139.856 805.044 141.152 804.516 141.56C804.036 141.944 803.316 142.16 802.332 142.16ZM806.7 133.88C808.212 135.992 809.364 137.816 810.18 139.4L808.092 140.864C807.228 139.136 806.1 137.24 804.66 135.152L806.7 133.88ZM797.46 127.4L799.452 128.384C798.588 130.208 797.58 131.768 796.38 133.112L794.484 131.768C795.636 130.544 796.644 129.08 797.46 127.4ZM806.1 127.376C807.252 128.792 808.26 130.352 809.148 132.08L807.012 133.184C806.1 131.36 805.116 129.728 804.036 128.312L806.1 127.376ZM799.548 133.952C800.652 135.248 801.516 136.4 802.092 137.408L800.148 138.752C799.524 137.672 798.684 136.472 797.628 135.152L799.548 133.952ZM820.86 124.184V141.008H818.46V139.808H814.908V141.704H812.508V124.184H814.812C815.244 122.912 815.556 121.592 815.748 120.224L818.268 120.56C818.004 121.856 817.644 123.08 817.212 124.184H820.86ZM814.908 137.504H818.46V132.968H814.908V137.504ZM814.908 130.736H818.46V126.536H814.908V130.736ZM825.228 130.016C826.764 131.96 827.94 133.664 828.78 135.152L826.764 136.544C825.876 134.96 824.676 133.208 823.188 131.288L825.228 130.016ZM833.22 124.184C833.22 132.584 833.1 137.768 832.86 139.736C832.62 141.416 831.468 142.256 829.404 142.256C828.924 142.256 828.06 142.208 826.812 142.112L826.212 139.832C827.268 139.904 828.204 139.952 828.996 139.952C829.86 139.952 830.364 139.472 830.508 138.536C830.652 137.384 830.724 133.424 830.772 126.632H824.964C824.316 128.072 823.548 129.368 822.66 130.52L821.148 128.528C822.732 126.272 823.788 123.488 824.364 120.2L826.836 120.512C826.596 121.808 826.284 123.032 825.924 124.184H833.22ZM856.428 134.792H844.092V132.68H854.004V131.552H844.62V129.44H854.004V128.288H844.98V127.064C844.788 127.208 844.596 127.328 844.428 127.448L843.012 125.6C842.58 126.848 842.124 128.12 841.644 129.416C842.796 131.648 843.42 133.568 843.516 135.2C843.516 136.352 843.324 137.192 842.94 137.72C842.316 138.344 841.284 138.656 839.82 138.68L838.98 136.16C839.532 136.232 839.988 136.28 840.324 136.28C840.612 136.232 840.828 136.136 840.948 135.992C841.044 135.848 841.092 135.584 841.092 135.2C841.092 133.592 840.468 131.792 839.22 129.8C840.156 127.424 840.9 125.288 841.452 123.392H838.932V142.52H836.484V121.04H843.9V123.008C843.636 123.824 843.372 124.616 843.084 125.432C845.268 123.992 846.732 122.264 847.5 120.2L849.996 120.512C849.852 120.944 849.684 121.352 849.492 121.736H854.82V123.536C854.22 124.52 853.62 125.384 853.02 126.128H856.428V134.792ZM848.22 123.872C847.596 124.688 846.9 125.432 846.132 126.128H850.308C850.86 125.48 851.436 124.736 852.012 123.872H848.22ZM856.308 135.32C857.052 136.808 857.7 138.416 858.276 140.12L856.188 141.056C855.588 139.136 854.916 137.456 854.196 135.992L856.308 135.32ZM844.26 135.872L846.42 136.328C845.964 138.416 845.316 140.216 844.5 141.728L842.436 140.408C843.276 138.968 843.876 137.456 844.26 135.872ZM852.636 142.304H849.228C847.692 142.304 846.948 141.392 846.948 139.568V135.68H849.252V139.088C849.252 139.76 849.468 140.096 849.948 140.096H852.252C852.444 140.096 852.612 140 852.732 139.832C852.876 139.64 852.972 139.088 853.02 138.128L855.156 138.848C854.988 140.528 854.7 141.536 854.316 141.848C853.932 142.136 853.38 142.304 852.636 142.304ZM851.532 134.984C852.348 135.968 852.996 136.832 853.452 137.576L851.604 138.848C851.148 138.032 850.524 137.12 849.732 136.112L851.532 134.984ZM878.532 129.992C879.804 133.448 880.932 137.384 881.94 141.848L879.444 142.496C879.252 141.632 879.084 140.792 878.892 140C875.772 140.576 872.412 141.104 868.812 141.632L868.356 139.232C869.028 139.04 869.412 138.776 869.532 138.416L874.332 120.968L876.828 121.304L871.98 138.68C874.428 138.32 876.54 137.96 878.316 137.624C877.716 135.272 877.044 132.968 876.3 130.76L878.532 129.992ZM860.34 126.488H864.324V123.752C863.22 123.896 862.092 124.016 860.94 124.112L860.412 121.712C863.868 121.472 866.94 121.016 869.652 120.344L870.516 122.648C869.364 122.936 868.14 123.176 866.844 123.392V126.488H870.444V128.912H866.844V129.584C867.972 130.64 869.124 131.816 870.276 133.112L868.884 135.224C868.092 133.904 867.42 132.824 866.844 132.008V142.424H864.324V132.656C863.412 134.6 862.284 136.376 860.94 138.008L859.812 135.128C861.78 133.304 863.22 131.216 864.132 128.912H860.34V126.488ZM905.076 121.664V141.488H902.628V139.76H897.708V141.776H895.284V121.664H905.076ZM897.708 137.408H902.628V123.992H897.708V137.408ZM884.46 126.632H888.396V123.968C887.34 124.136 886.26 124.256 885.204 124.328L884.388 122.096C888.132 121.784 891.132 121.208 893.34 120.368L894.516 122.432C893.292 122.864 892.044 123.248 890.796 123.536V126.632H894.636V128.96H890.796V129.824C892.14 130.952 893.484 132.248 894.852 133.688L893.388 135.872C892.38 134.384 891.516 133.184 890.796 132.272V142.232H888.396V132.896C887.436 134.816 886.26 136.568 884.844 138.176L883.764 135.416C885.852 133.544 887.388 131.432 888.396 129.08V128.96H884.46V126.632ZM929.196 122.408V127.952H926.652V124.832H911.028V127.928H908.484V122.408H917.364C917.076 121.736 916.74 121.136 916.38 120.56L919.212 120.08C919.548 120.776 919.86 121.544 920.196 122.408H929.196ZM908.196 129.056H914.796C915.468 127.808 916.092 126.584 916.692 125.384L919.284 126.176L917.772 129.056H929.556V131.456H924.996C924.06 133.736 923.052 135.56 921.972 136.952C924.3 137.936 926.7 139.088 929.172 140.432L927.468 142.64C925.044 141.2 922.62 139.928 920.172 138.824C917.46 141.176 913.932 142.4 909.588 142.52L908.124 140.192C912.012 140.192 915.156 139.352 917.556 137.672C915.444 136.784 913.308 135.992 911.172 135.32C911.988 134.024 912.756 132.752 913.476 131.456H908.196V129.056ZM916.428 131.456C915.804 132.536 915.228 133.496 914.7 134.336C916.26 134.768 917.868 135.32 919.5 135.944C920.604 134.696 921.516 133.184 922.236 131.456H916.428ZM941.964 120.224H943.74C946.74 123.296 950.196 125.72 954.108 127.496L952.86 129.728C951.708 129.176 950.604 128.576 949.548 127.928V130.088H944.124V133.448H950.796V135.872H944.124V139.424H952.98V141.872H932.748V139.424H941.58V135.872H934.884V133.448H941.58V130.088H936.156V127.904C935.076 128.576 933.948 129.2 932.748 129.776L931.524 127.544C935.7 125.576 939.18 123.152 941.964 120.224ZM936.54 127.664H949.14C946.764 126.176 944.676 124.448 942.852 122.504C941.1 124.4 938.988 126.128 936.54 127.664ZM960.852 136.352C961.764 136.352 962.556 136.664 963.228 137.288C963.876 137.912 964.212 138.68 964.212 139.592C964.212 140.504 963.876 141.272 963.228 141.896C962.556 142.52 961.764 142.832 960.852 142.832C959.916 142.832 959.124 142.52 958.476 141.92C957.804 141.296 957.492 140.504 957.492 139.592C957.492 138.656 957.804 137.888 958.476 137.264C959.124 136.64 959.916 136.352 960.852 136.352ZM960.852 138.032C960.42 138.032 960.036 138.176 959.724 138.488C959.388 138.776 959.244 139.16 959.244 139.592C959.244 140.024 959.388 140.384 959.724 140.696C960.036 140.984 960.42 141.152 960.852 141.152C961.284 141.152 961.644 140.984 961.98 140.696C962.292 140.384 962.46 140.024 962.46 139.592C962.46 139.16 962.292 138.776 961.98 138.488C961.644 138.176 961.284 138.032 960.852 138.032Z" fill="white" fill-opacity="0.9"/>
<defs>
<linearGradient id="paint0_linear_1_3463" x1="338" y1="30" x2="353.112" y2="144.597" gradientUnits="userSpaceOnUse">
<stop offset="0.065" stop-color="#A73EE7"/>
<stop offset="0.85902" stop-color="#00EBFF"/>
</linearGradient>
</defs>
</svg>
