<svg width="1076" height="154" viewBox="0 0 1076 154" fill="none" xmlns="http://www.w3.org/2000/svg">
<path d="M349.188 29.5977H377.131C383.217 29.5977 387.769 31.0449 390.787 33.9395C393.83 36.834 395.352 40.9531 395.352 46.2969C395.352 51.7891 393.694 56.0814 390.379 59.1738C387.089 62.2663 382.054 63.8125 375.275 63.8125H366.072V84H349.188V29.5977ZM366.072 52.791H370.191C373.432 52.791 375.708 52.2344 377.02 51.1211C378.331 49.9831 378.986 48.5358 378.986 46.7793C378.986 45.0723 378.417 43.625 377.279 42.4375C376.141 41.25 374.001 40.6562 370.859 40.6562H366.072V52.791ZM416.949 57.3555L402.514 55.834C403.058 53.3105 403.837 51.3314 404.852 49.8965C405.891 48.4368 407.375 47.1751 409.305 46.1113C410.69 45.3444 412.595 44.7507 415.02 44.3301C417.444 43.9095 420.066 43.6992 422.887 43.6992C427.414 43.6992 431.051 43.959 433.797 44.4785C436.543 44.9733 438.831 46.0247 440.662 47.6328C441.949 48.7461 442.963 50.3294 443.705 52.3828C444.447 54.4115 444.818 56.3535 444.818 58.209V75.6133C444.818 77.4688 444.93 78.9284 445.152 79.9922C445.4 81.0312 445.919 82.3672 446.711 84H432.535C431.966 82.9857 431.595 82.2188 431.422 81.6992C431.249 81.1549 431.076 80.3138 430.902 79.1758C428.923 81.0807 426.956 82.4414 425.002 83.2578C422.33 84.3464 419.225 84.8906 415.688 84.8906C410.987 84.8906 407.412 83.8021 404.963 81.625C402.538 79.4479 401.326 76.7637 401.326 73.5723C401.326 70.5788 402.204 68.1172 403.961 66.1875C405.717 64.2578 408.958 62.8229 413.684 61.8828C419.349 60.7448 423.023 59.9531 424.705 59.5078C426.387 59.0378 428.169 58.4316 430.049 57.6895C430.049 55.834 429.665 54.5352 428.898 53.793C428.132 53.0508 426.783 52.6797 424.854 52.6797C422.38 52.6797 420.524 53.0755 419.287 53.8672C418.322 54.4857 417.543 55.6484 416.949 57.3555ZM430.049 65.2969C427.971 66.0391 425.806 66.6947 423.555 67.2637C420.487 68.0801 418.545 68.8841 417.729 69.6758C416.887 70.4922 416.467 71.4199 416.467 72.459C416.467 73.6465 416.875 74.6237 417.691 75.3906C418.533 76.1328 419.757 76.5039 421.365 76.5039C423.048 76.5039 424.606 76.0957 426.041 75.2793C427.501 74.4629 428.527 73.4733 429.121 72.3105C429.74 71.123 430.049 69.5892 430.049 67.709V65.2969ZM451.201 73.0898L466.193 71.6797C466.812 73.4609 467.678 74.735 468.791 75.502C469.904 76.2689 471.389 76.6523 473.244 76.6523C475.273 76.6523 476.844 76.2194 477.957 75.3535C478.823 74.7103 479.256 73.9062 479.256 72.9414C479.256 71.8529 478.687 71.0117 477.549 70.418C476.732 69.9974 474.568 69.4779 471.055 68.8594C465.81 67.944 462.161 67.1029 460.107 66.3359C458.079 65.5443 456.359 64.2207 454.949 62.3652C453.564 60.5098 452.871 58.3945 452.871 56.0195C452.871 53.4219 453.626 51.1829 455.135 49.3027C456.644 47.4225 458.722 46.0247 461.369 45.1094C464.016 44.1693 467.566 43.6992 472.02 43.6992C476.72 43.6992 480.184 44.0579 482.41 44.7754C484.661 45.4928 486.529 46.6061 488.014 48.1152C489.523 49.6243 490.772 51.6654 491.762 54.2383L477.438 55.6484C477.066 54.3867 476.448 53.459 475.582 52.8652C474.395 52.0736 472.96 51.6777 471.277 51.6777C469.57 51.6777 468.321 51.987 467.529 52.6055C466.762 53.1992 466.379 53.929 466.379 54.7949C466.379 55.7598 466.874 56.4896 467.863 56.9844C468.853 57.4792 471.005 57.9245 474.32 58.3203C479.342 58.8893 483.078 59.681 485.527 60.6953C487.977 61.7096 489.844 63.1569 491.131 65.0371C492.442 66.9173 493.098 68.9831 493.098 71.2344C493.098 73.5104 492.405 75.7246 491.02 77.877C489.659 80.0293 487.494 81.7487 484.525 83.0352C481.581 84.2969 477.561 84.9277 472.465 84.9277C465.266 84.9277 460.132 83.901 457.064 81.8477C454.021 79.7943 452.067 76.875 451.201 73.0898ZM497.662 73.0898L512.654 71.6797C513.273 73.4609 514.139 74.735 515.252 75.502C516.365 76.2689 517.85 76.6523 519.705 76.6523C521.734 76.6523 523.305 76.2194 524.418 75.3535C525.284 74.7103 525.717 73.9062 525.717 72.9414C525.717 71.8529 525.148 71.0117 524.01 70.418C523.193 69.9974 521.029 69.4779 517.516 68.8594C512.271 67.944 508.622 67.1029 506.568 66.3359C504.54 65.5443 502.82 64.2207 501.41 62.3652C500.025 60.5098 499.332 58.3945 499.332 56.0195C499.332 53.4219 500.087 51.1829 501.596 49.3027C503.105 47.4225 505.183 46.0247 507.83 45.1094C510.477 44.1693 514.027 43.6992 518.48 43.6992C523.181 43.6992 526.645 44.0579 528.871 44.7754C531.122 45.4928 532.99 46.6061 534.475 48.1152C535.984 49.6243 537.233 51.6654 538.223 54.2383L523.898 55.6484C523.527 54.3867 522.909 53.459 522.043 52.8652C520.855 52.0736 519.421 51.6777 517.738 51.6777C516.031 51.6777 514.782 51.987 513.99 52.6055C513.223 53.1992 512.84 53.929 512.84 54.7949C512.84 55.7598 513.335 56.4896 514.324 56.9844C515.314 57.4792 517.466 57.9245 520.781 58.3203C525.803 58.8893 529.539 59.681 531.988 60.6953C534.438 61.7096 536.305 63.1569 537.592 65.0371C538.903 66.9173 539.559 68.9831 539.559 71.2344C539.559 73.5104 538.866 75.7246 537.48 77.877C536.12 80.0293 533.955 81.7487 530.986 83.0352C528.042 84.2969 524.022 84.9277 518.926 84.9277C511.727 84.9277 506.593 83.901 503.525 81.8477C500.482 79.7943 498.528 76.875 497.662 73.0898ZM600.529 64.2949V52.9766H626.506V76.1699C621.533 79.5592 617.13 81.8724 613.295 83.1094C609.485 84.3216 604.958 84.9277 599.713 84.9277C593.256 84.9277 587.986 83.8268 583.904 81.625C579.847 79.4232 576.693 76.1452 574.441 71.791C572.215 67.4368 571.102 62.4395 571.102 56.7988C571.102 50.8613 572.326 45.7031 574.775 41.3242C577.225 36.9206 580.812 33.5807 585.537 31.3047C589.223 29.5482 594.184 28.6699 600.418 28.6699C606.43 28.6699 610.92 29.2142 613.889 30.3027C616.882 31.3913 619.356 33.0859 621.311 35.3867C623.29 37.6628 624.774 40.5573 625.764 44.0703L609.547 46.9648C608.879 44.9115 607.741 43.3405 606.133 42.252C604.549 41.1634 602.521 40.6191 600.047 40.6191C596.361 40.6191 593.417 41.9056 591.215 44.4785C589.038 47.0267 587.949 51.0716 587.949 56.6133C587.949 62.5013 589.05 66.707 591.252 69.2305C593.479 71.7539 596.571 73.0156 600.529 73.0156C602.41 73.0156 604.203 72.7435 605.91 72.1992C607.617 71.6549 609.572 70.7272 611.773 69.416V64.2949H600.529ZM679.238 68.043H648.957C649.229 70.4674 649.885 72.2734 650.924 73.4609C652.383 75.168 654.288 76.0215 656.639 76.0215C658.123 76.0215 659.533 75.6504 660.869 74.9082C661.686 74.4382 662.564 73.6094 663.504 72.4219L678.385 73.7949C676.109 77.7533 673.363 80.5983 670.146 82.3301C666.93 84.0371 662.316 84.8906 656.305 84.8906C651.085 84.8906 646.978 84.1608 643.984 82.7012C640.991 81.2168 638.505 78.8789 636.525 75.6875C634.571 72.4714 633.594 68.6986 633.594 64.3691C633.594 58.209 635.561 53.224 639.494 49.4141C643.452 45.6042 648.908 43.6992 655.859 43.6992C661.5 43.6992 665.953 44.5527 669.219 46.2598C672.484 47.9668 674.971 50.4408 676.678 53.6816C678.385 56.9225 679.238 61.1406 679.238 66.3359V68.043ZM663.875 60.8066C663.578 57.8874 662.786 55.7969 661.5 54.5352C660.238 53.2734 658.568 52.6426 656.49 52.6426C654.09 52.6426 652.173 53.5951 650.738 55.5C649.823 56.6875 649.242 58.4564 648.994 60.8066H663.875ZM686.178 44.5898H700.242V51.0098C702.345 48.3874 704.473 46.5195 706.625 45.4062C708.777 44.2682 711.4 43.6992 714.492 43.6992C718.673 43.6992 721.939 44.9486 724.289 47.4473C726.664 49.9212 727.852 53.7559 727.852 58.9512V84H712.674V62.3281C712.674 59.8542 712.216 58.11 711.301 57.0957C710.385 56.0566 709.099 55.5371 707.441 55.5371C705.611 55.5371 704.126 56.2298 702.988 57.6152C701.85 59.0007 701.281 61.487 701.281 65.0742V84H686.178V44.5898Z" fill="white" fill-opacity="0.9"/>
<path d="M349.188 29.5977H377.131C383.217 29.5977 387.769 31.0449 390.787 33.9395C393.83 36.834 395.352 40.9531 395.352 46.2969C395.352 51.7891 393.694 56.0814 390.379 59.1738C387.089 62.2663 382.054 63.8125 375.275 63.8125H366.072V84H349.188V29.5977ZM366.072 52.791H370.191C373.432 52.791 375.708 52.2344 377.02 51.1211C378.331 49.9831 378.986 48.5358 378.986 46.7793C378.986 45.0723 378.417 43.625 377.279 42.4375C376.141 41.25 374.001 40.6562 370.859 40.6562H366.072V52.791ZM416.949 57.3555L402.514 55.834C403.058 53.3105 403.837 51.3314 404.852 49.8965C405.891 48.4368 407.375 47.1751 409.305 46.1113C410.69 45.3444 412.595 44.7507 415.02 44.3301C417.444 43.9095 420.066 43.6992 422.887 43.6992C427.414 43.6992 431.051 43.959 433.797 44.4785C436.543 44.9733 438.831 46.0247 440.662 47.6328C441.949 48.7461 442.963 50.3294 443.705 52.3828C444.447 54.4115 444.818 56.3535 444.818 58.209V75.6133C444.818 77.4688 444.93 78.9284 445.152 79.9922C445.4 81.0312 445.919 82.3672 446.711 84H432.535C431.966 82.9857 431.595 82.2188 431.422 81.6992C431.249 81.1549 431.076 80.3138 430.902 79.1758C428.923 81.0807 426.956 82.4414 425.002 83.2578C422.33 84.3464 419.225 84.8906 415.688 84.8906C410.987 84.8906 407.412 83.8021 404.963 81.625C402.538 79.4479 401.326 76.7637 401.326 73.5723C401.326 70.5788 402.204 68.1172 403.961 66.1875C405.717 64.2578 408.958 62.8229 413.684 61.8828C419.349 60.7448 423.023 59.9531 424.705 59.5078C426.387 59.0378 428.169 58.4316 430.049 57.6895C430.049 55.834 429.665 54.5352 428.898 53.793C428.132 53.0508 426.783 52.6797 424.854 52.6797C422.38 52.6797 420.524 53.0755 419.287 53.8672C418.322 54.4857 417.543 55.6484 416.949 57.3555ZM430.049 65.2969C427.971 66.0391 425.806 66.6947 423.555 67.2637C420.487 68.0801 418.545 68.8841 417.729 69.6758C416.887 70.4922 416.467 71.4199 416.467 72.459C416.467 73.6465 416.875 74.6237 417.691 75.3906C418.533 76.1328 419.757 76.5039 421.365 76.5039C423.048 76.5039 424.606 76.0957 426.041 75.2793C427.501 74.4629 428.527 73.4733 429.121 72.3105C429.74 71.123 430.049 69.5892 430.049 67.709V65.2969ZM451.201 73.0898L466.193 71.6797C466.812 73.4609 467.678 74.735 468.791 75.502C469.904 76.2689 471.389 76.6523 473.244 76.6523C475.273 76.6523 476.844 76.2194 477.957 75.3535C478.823 74.7103 479.256 73.9062 479.256 72.9414C479.256 71.8529 478.687 71.0117 477.549 70.418C476.732 69.9974 474.568 69.4779 471.055 68.8594C465.81 67.944 462.161 67.1029 460.107 66.3359C458.079 65.5443 456.359 64.2207 454.949 62.3652C453.564 60.5098 452.871 58.3945 452.871 56.0195C452.871 53.4219 453.626 51.1829 455.135 49.3027C456.644 47.4225 458.722 46.0247 461.369 45.1094C464.016 44.1693 467.566 43.6992 472.02 43.6992C476.72 43.6992 480.184 44.0579 482.41 44.7754C484.661 45.4928 486.529 46.6061 488.014 48.1152C489.523 49.6243 490.772 51.6654 491.762 54.2383L477.438 55.6484C477.066 54.3867 476.448 53.459 475.582 52.8652C474.395 52.0736 472.96 51.6777 471.277 51.6777C469.57 51.6777 468.321 51.987 467.529 52.6055C466.762 53.1992 466.379 53.929 466.379 54.7949C466.379 55.7598 466.874 56.4896 467.863 56.9844C468.853 57.4792 471.005 57.9245 474.32 58.3203C479.342 58.8893 483.078 59.681 485.527 60.6953C487.977 61.7096 489.844 63.1569 491.131 65.0371C492.442 66.9173 493.098 68.9831 493.098 71.2344C493.098 73.5104 492.405 75.7246 491.02 77.877C489.659 80.0293 487.494 81.7487 484.525 83.0352C481.581 84.2969 477.561 84.9277 472.465 84.9277C465.266 84.9277 460.132 83.901 457.064 81.8477C454.021 79.7943 452.067 76.875 451.201 73.0898ZM497.662 73.0898L512.654 71.6797C513.273 73.4609 514.139 74.735 515.252 75.502C516.365 76.2689 517.85 76.6523 519.705 76.6523C521.734 76.6523 523.305 76.2194 524.418 75.3535C525.284 74.7103 525.717 73.9062 525.717 72.9414C525.717 71.8529 525.148 71.0117 524.01 70.418C523.193 69.9974 521.029 69.4779 517.516 68.8594C512.271 67.944 508.622 67.1029 506.568 66.3359C504.54 65.5443 502.82 64.2207 501.41 62.3652C500.025 60.5098 499.332 58.3945 499.332 56.0195C499.332 53.4219 500.087 51.1829 501.596 49.3027C503.105 47.4225 505.183 46.0247 507.83 45.1094C510.477 44.1693 514.027 43.6992 518.48 43.6992C523.181 43.6992 526.645 44.0579 528.871 44.7754C531.122 45.4928 532.99 46.6061 534.475 48.1152C535.984 49.6243 537.233 51.6654 538.223 54.2383L523.898 55.6484C523.527 54.3867 522.909 53.459 522.043 52.8652C520.855 52.0736 519.421 51.6777 517.738 51.6777C516.031 51.6777 514.782 51.987 513.99 52.6055C513.223 53.1992 512.84 53.929 512.84 54.7949C512.84 55.7598 513.335 56.4896 514.324 56.9844C515.314 57.4792 517.466 57.9245 520.781 58.3203C525.803 58.8893 529.539 59.681 531.988 60.6953C534.438 61.7096 536.305 63.1569 537.592 65.0371C538.903 66.9173 539.559 68.9831 539.559 71.2344C539.559 73.5104 538.866 75.7246 537.48 77.877C536.12 80.0293 533.955 81.7487 530.986 83.0352C528.042 84.2969 524.022 84.9277 518.926 84.9277C511.727 84.9277 506.593 83.901 503.525 81.8477C500.482 79.7943 498.528 76.875 497.662 73.0898ZM600.529 64.2949V52.9766H626.506V76.1699C621.533 79.5592 617.13 81.8724 613.295 83.1094C609.485 84.3216 604.958 84.9277 599.713 84.9277C593.256 84.9277 587.986 83.8268 583.904 81.625C579.847 79.4232 576.693 76.1452 574.441 71.791C572.215 67.4368 571.102 62.4395 571.102 56.7988C571.102 50.8613 572.326 45.7031 574.775 41.3242C577.225 36.9206 580.812 33.5807 585.537 31.3047C589.223 29.5482 594.184 28.6699 600.418 28.6699C606.43 28.6699 610.92 29.2142 613.889 30.3027C616.882 31.3913 619.356 33.0859 621.311 35.3867C623.29 37.6628 624.774 40.5573 625.764 44.0703L609.547 46.9648C608.879 44.9115 607.741 43.3405 606.133 42.252C604.549 41.1634 602.521 40.6191 600.047 40.6191C596.361 40.6191 593.417 41.9056 591.215 44.4785C589.038 47.0267 587.949 51.0716 587.949 56.6133C587.949 62.5013 589.05 66.707 591.252 69.2305C593.479 71.7539 596.571 73.0156 600.529 73.0156C602.41 73.0156 604.203 72.7435 605.91 72.1992C607.617 71.6549 609.572 70.7272 611.773 69.416V64.2949H600.529ZM679.238 68.043H648.957C649.229 70.4674 649.885 72.2734 650.924 73.4609C652.383 75.168 654.288 76.0215 656.639 76.0215C658.123 76.0215 659.533 75.6504 660.869 74.9082C661.686 74.4382 662.564 73.6094 663.504 72.4219L678.385 73.7949C676.109 77.7533 673.363 80.5983 670.146 82.3301C666.93 84.0371 662.316 84.8906 656.305 84.8906C651.085 84.8906 646.978 84.1608 643.984 82.7012C640.991 81.2168 638.505 78.8789 636.525 75.6875C634.571 72.4714 633.594 68.6986 633.594 64.3691C633.594 58.209 635.561 53.224 639.494 49.4141C643.452 45.6042 648.908 43.6992 655.859 43.6992C661.5 43.6992 665.953 44.5527 669.219 46.2598C672.484 47.9668 674.971 50.4408 676.678 53.6816C678.385 56.9225 679.238 61.1406 679.238 66.3359V68.043ZM663.875 60.8066C663.578 57.8874 662.786 55.7969 661.5 54.5352C660.238 53.2734 658.568 52.6426 656.49 52.6426C654.09 52.6426 652.173 53.5951 650.738 55.5C649.823 56.6875 649.242 58.4564 648.994 60.8066H663.875ZM686.178 44.5898H700.242V51.0098C702.345 48.3874 704.473 46.5195 706.625 45.4062C708.777 44.2682 711.4 43.6992 714.492 43.6992C718.673 43.6992 721.939 44.9486 724.289 47.4473C726.664 49.9212 727.852 53.7559 727.852 58.9512V84H712.674V62.3281C712.674 59.8542 712.216 58.11 711.301 57.0957C710.385 56.0566 709.099 55.5371 707.441 55.5371C705.611 55.5371 704.126 56.2298 702.988 57.6152C701.85 59.0007 701.281 61.487 701.281 65.0742V84H686.178V44.5898Z" fill="url(#paint0_linear_722_7461)"/>
<path d="M160.149 122.864H167.253C171.381 122.864 173.469 124.616 173.469 128.12C173.469 131.648 171.381 133.424 167.205 133.424H162.957V140H160.149V122.864ZM162.957 125.264V131.024H167.037C168.285 131.024 169.197 130.784 169.773 130.352C170.349 129.896 170.637 129.152 170.637 128.12C170.637 127.088 170.325 126.368 169.749 125.936C169.173 125.48 168.261 125.264 167.037 125.264H162.957ZM181.275 127.256C183.099 127.256 184.467 127.712 185.331 128.624C186.099 129.416 186.483 130.568 186.483 132.08V140H183.939V138.368C183.459 138.992 182.859 139.448 182.163 139.784C181.371 140.144 180.435 140.336 179.355 140.336C178.059 140.336 177.051 140 176.307 139.352C175.539 138.68 175.155 137.84 175.155 136.808C175.155 135.416 175.683 134.336 176.787 133.592C177.795 132.872 179.211 132.488 181.035 132.44L183.747 132.368V131.888C183.747 130.256 182.859 129.464 181.083 129.464C180.315 129.464 179.715 129.584 179.259 129.872C178.731 130.184 178.371 130.664 178.227 131.312L175.515 131.096C175.779 129.728 176.451 128.72 177.531 128.096C178.443 127.52 179.691 127.256 181.275 127.256ZM183.747 134.336L181.227 134.408C179.043 134.456 177.963 135.224 177.963 136.712C177.963 137.144 178.131 137.504 178.515 137.792C178.899 138.08 179.379 138.248 179.979 138.248C181.035 138.248 181.923 137.936 182.643 137.336C183.363 136.712 183.747 135.92 183.747 134.96V134.336ZM194.05 127.256C197.314 127.256 199.114 128.552 199.402 131.192H196.738C196.546 130.568 196.258 130.112 195.874 129.872C195.466 129.608 194.842 129.488 194.002 129.488C193.282 129.488 192.73 129.584 192.37 129.8C191.938 130.016 191.746 130.352 191.746 130.832C191.746 131.216 192.058 131.576 192.73 131.864C193.138 132.032 193.954 132.272 195.202 132.584C196.594 132.92 197.65 133.304 198.322 133.76C199.306 134.384 199.81 135.272 199.81 136.376C199.81 139.016 197.938 140.336 194.218 140.336C190.762 140.336 188.914 138.872 188.65 135.968H191.314C191.458 136.76 191.746 137.312 192.154 137.648C192.562 137.936 193.21 138.104 194.122 138.104C196.042 138.104 197.002 137.576 197.002 136.568C197.002 135.992 196.642 135.536 195.922 135.2C195.538 135.008 194.722 134.792 193.474 134.504C192.01 134.168 190.978 133.808 190.378 133.424C189.418 132.824 188.938 131.984 188.938 130.904C188.938 129.752 189.394 128.864 190.354 128.24C191.29 127.568 192.514 127.256 194.05 127.256ZM206.659 127.256C209.923 127.256 211.723 128.552 212.011 131.192H209.347C209.155 130.568 208.867 130.112 208.483 129.872C208.075 129.608 207.451 129.488 206.611 129.488C205.891 129.488 205.339 129.584 204.979 129.8C204.547 130.016 204.355 130.352 204.355 130.832C204.355 131.216 204.667 131.576 205.339 131.864C205.747 132.032 206.563 132.272 207.811 132.584C209.203 132.92 210.259 133.304 210.931 133.76C211.915 134.384 212.419 135.272 212.419 136.376C212.419 139.016 210.547 140.336 206.827 140.336C203.371 140.336 201.523 138.872 201.259 135.968H203.923C204.067 136.76 204.355 137.312 204.763 137.648C205.171 137.936 205.819 138.104 206.731 138.104C208.651 138.104 209.611 137.576 209.611 136.568C209.611 135.992 209.251 135.536 208.531 135.2C208.147 135.008 207.331 134.792 206.083 134.504C204.619 134.168 203.587 133.808 202.987 133.424C202.027 132.824 201.547 131.984 201.547 130.904C201.547 129.752 202.003 128.864 202.963 128.24C203.899 127.568 205.123 127.256 206.659 127.256ZM222.268 122.528C224.476 122.528 226.204 123.008 227.476 123.992C228.7 124.952 229.468 126.368 229.78 128.288H226.948C226.708 127.184 226.18 126.368 225.412 125.816C224.62 125.264 223.564 125 222.268 125C220.66 125 219.388 125.528 218.452 126.632C217.42 127.784 216.916 129.392 216.916 131.504C216.916 133.52 217.372 135.08 218.284 136.16C219.268 137.312 220.804 137.888 222.892 137.888C223.708 137.888 224.476 137.792 225.196 137.6C225.868 137.408 226.468 137.144 227.044 136.808V133.28H222.508V130.88H229.852V138.128C228.94 138.848 227.908 139.376 226.732 139.76C225.484 140.144 224.116 140.336 222.58 140.336C219.844 140.336 217.732 139.472 216.22 137.744C214.804 136.136 214.108 134.048 214.108 131.504C214.108 128.936 214.804 126.824 216.22 125.168C217.708 123.392 219.724 122.528 222.268 122.528ZM238.009 127.256C240.049 127.256 241.609 127.928 242.689 129.32C243.673 130.568 244.177 132.32 244.177 134.552H234.889C234.985 135.704 235.297 136.592 235.825 137.192C236.353 137.792 237.121 138.104 238.105 138.104C238.945 138.104 239.617 137.912 240.145 137.528C240.553 137.216 240.913 136.712 241.249 136.016H243.985C243.697 137.168 243.121 138.152 242.257 138.92C241.153 139.856 239.785 140.336 238.129 140.336C236.281 140.336 234.817 139.76 233.737 138.632C232.585 137.456 232.009 135.848 232.009 133.784C232.009 131.936 232.537 130.4 233.641 129.152C234.697 127.88 236.161 127.256 238.009 127.256ZM238.081 129.488C237.169 129.488 236.473 129.728 235.945 130.256C235.441 130.76 235.105 131.504 234.937 132.488H241.321C241.081 130.472 240.001 129.488 238.081 129.488ZM252.754 127.256C255.85 127.256 257.41 128.936 257.41 132.344V140H254.674V132.584C254.674 130.544 253.738 129.536 251.866 129.536C251.194 129.536 250.594 129.776 250.09 130.256C249.514 130.784 249.178 131.552 249.082 132.536V140H246.346V127.592H249.082V129.032C249.562 128.456 250.114 128 250.714 127.712C251.338 127.4 252.01 127.256 252.754 127.256ZM263.388 120.992H278.412V129.752H263.388V120.992ZM275.94 127.64V126.344H265.884V127.64H275.94ZM265.884 124.376H275.94V123.104H265.884V124.376ZM269.868 133.28H260.148V131.024H281.58V133.28H272.388V135.296H279.012V137.504H272.388V139.808C273.468 139.904 274.716 139.952 276.108 139.952C278.244 139.952 280.044 139.904 281.508 139.856L280.812 142.208C279.132 142.208 277.62 142.184 276.276 142.16C272.292 142.136 269.58 141.824 268.092 141.248C266.94 140.768 265.932 139.832 265.02 138.488C264.108 140.096 262.956 141.44 261.588 142.52L259.956 140.432C262.116 138.752 263.556 136.544 264.324 133.76L266.7 134.168C266.484 135.008 266.22 135.8 265.932 136.544C266.844 137.96 267.9 138.848 269.076 139.232C269.316 139.304 269.58 139.376 269.868 139.448V133.28ZM283.932 129.944H305.748V132.44H283.932V129.944ZM317.58 127.472H320.124V142.496H317.58V127.472ZM317.748 120.272H319.956C321.924 123.488 325.332 126.296 330.132 128.72L328.62 131C324.252 128.744 320.988 125.96 318.852 122.624C316.284 126.248 313.02 129.032 309.084 131L307.572 128.72C311.988 126.56 315.372 123.728 317.748 120.272ZM339.372 131.192H344.532V127.064H347.076V131.192H352.572V133.64H347.076V139.256H353.604V141.704H338.508V139.256H344.532V133.64H339.372V131.192ZM335.172 133.592C334.524 134.216 333.852 134.816 333.156 135.416L331.548 133.328C334.236 131.096 336.396 128.552 338.004 125.72H332.412V123.272H339.204C339.66 122.216 340.044 121.136 340.38 120.032L342.972 120.344C342.684 121.352 342.348 122.312 341.988 123.272H353.604V125.72H340.884C339.972 127.544 338.892 129.248 337.644 130.832V142.568H335.172V133.592ZM364.38 137.24V139.592C362.028 140.48 359.364 141.2 356.364 141.752L356.052 139.304C359.22 138.776 362.004 138.104 364.38 137.24ZM359.604 120.128L362.004 121.088C360.9 123.896 359.796 126.2 358.668 127.976L360.972 127.688C361.356 126.872 361.788 126.032 362.22 125.12L364.452 125.984C362.58 129.608 360.972 132.272 359.676 134C361.14 133.688 362.628 133.28 364.14 132.752V134.984C361.524 135.872 359.052 136.472 356.724 136.76L356.076 134.504C356.508 134.312 356.892 134.072 357.204 133.784C357.876 133.064 358.74 131.768 359.772 129.944L356.364 130.4L355.764 128.12C356.148 127.952 356.484 127.64 356.796 127.208C357.876 125.048 358.812 122.696 359.604 120.128ZM376.068 124.28L376.428 126.584L370.5 127.4C370.524 128.288 370.572 129.128 370.668 129.92L376.716 128.984L377.1 131.336L370.956 132.296C370.956 132.464 370.98 132.632 371.028 132.8C371.22 133.88 371.46 134.84 371.748 135.704C372.78 134.696 373.716 133.544 374.556 132.296L376.548 133.64C375.372 135.344 374.124 136.808 372.804 138.032C373.452 138.992 374.028 139.496 374.556 139.496C375.084 139.496 375.516 138.416 375.852 136.256L377.988 137.648C377.268 140.72 376.236 142.256 374.844 142.256C373.596 142.232 372.444 141.488 371.364 140.048C371.22 139.856 371.076 139.688 370.98 139.52C369.3 140.72 367.5 141.608 365.604 142.184L364.14 140.168C366.252 139.496 368.148 138.56 369.828 137.336C369.396 136.352 369.06 135.272 368.796 134.12C368.676 133.64 368.58 133.16 368.508 132.68L364.476 133.304L364.116 130.952L368.172 130.304C368.076 129.488 368.028 128.624 367.98 127.76L364.884 128.192L364.524 125.888L367.932 125.408V120.272H370.452V125.072L376.068 124.28ZM373.14 120.176C374.268 121.256 375.156 122.192 375.78 122.96L373.812 124.328C373.188 123.44 372.324 122.456 371.244 121.376L373.14 120.176ZM384.924 126.848C383.988 128.96 382.788 130.76 381.324 132.2L379.668 130.112C381.828 127.856 383.268 124.832 384.012 121.016L386.58 121.496C386.364 122.528 386.124 123.512 385.836 124.424H390.012V120.488H392.532V124.424H400.14V126.848H392.532V131.552H399.684V133.976H392.532V139.208H401.7V141.704H380.34V139.208H390.012V133.976H383.244V131.552H390.012V126.848H384.924ZM421.068 120.08C422.148 120.896 423.06 121.736 423.828 122.576L422.724 123.704H425.58V126.08H418.524C418.716 128.864 419.004 131.024 419.388 132.512C419.46 132.848 419.556 133.16 419.652 133.496C420.612 131.816 421.404 129.872 422.028 127.712L424.308 128.696C423.372 131.744 422.172 134.336 420.708 136.472C420.924 136.952 421.164 137.384 421.404 137.744C422.076 138.776 422.604 139.304 422.964 139.304C423.204 139.304 423.492 138.152 423.804 135.848L426.06 137.072C425.436 140.456 424.548 142.16 423.348 142.16C422.292 142.16 421.188 141.44 420.012 140.024C419.676 139.592 419.34 139.112 419.052 138.584C417.468 140.312 415.644 141.632 413.58 142.544L412.14 140.432C414.396 139.424 416.316 137.96 417.9 136.04C417.564 135.2 417.276 134.288 417.012 133.304C416.484 131.384 416.148 128.96 415.956 126.08H408.468V129.416H414.348C414.276 133.88 414.036 136.664 413.628 137.768C413.244 138.776 412.404 139.28 411.108 139.304C410.532 139.304 409.884 139.256 409.164 139.184L408.396 136.904C409.356 136.976 410.148 137.024 410.82 137.024C411.204 137 411.468 136.76 411.588 136.28C411.732 135.728 411.804 134.216 411.852 131.768H408.468C408.348 136.232 407.364 139.808 405.516 142.52L403.62 140.816C405.108 138.632 405.876 135.584 405.948 131.696V123.704H415.836C415.788 122.6 415.788 121.424 415.788 120.224H418.332C418.332 121.448 418.356 122.6 418.404 123.704H421.788C421.188 123.032 420.42 122.312 419.484 121.592L421.068 120.08ZM428.532 121.04H435.084V122.912C434.652 124.832 434.172 126.824 433.62 128.888C434.556 130.928 435.06 132.704 435.156 134.192C435.156 135.296 434.94 136.088 434.556 136.544C433.98 137.144 433.02 137.456 431.628 137.456L430.884 135.152C431.508 135.224 432.036 135.272 432.444 135.272C432.612 135.224 432.732 135.152 432.804 135.008C432.852 134.864 432.9 134.576 432.9 134.192C432.9 132.728 432.372 131.072 431.364 129.248C431.988 127.04 432.468 125.024 432.804 123.248H430.836V142.28H428.532V121.04ZM437.028 121.592C437.868 123.032 438.516 124.304 438.972 125.384L437.124 126.632C436.644 125.456 435.996 124.16 435.204 122.72L437.028 121.592ZM445.068 139.856C446.796 139.856 448.428 139.832 449.964 139.784L449.34 142.136H444.876C444.204 142.136 443.532 142.112 442.86 142.088C441.876 142.064 440.988 141.92 440.196 141.656C439.428 141.368 438.804 140.912 438.3 140.264C438.012 139.928 437.748 139.784 437.532 139.784C437.148 139.784 436.308 140.696 435.06 142.52L433.644 140.624C434.748 139.136 435.684 138.152 436.5 137.696V130.328H434.82V128.12H438.804V130.4C440.196 128.84 441.228 126.92 441.948 124.616H439.308V122.36H442.524C442.644 121.688 442.74 121.016 442.836 120.32L445.26 120.632C445.116 121.232 444.996 121.808 444.876 122.36H449.748V124.616H444.276C444.084 125.24 443.868 125.84 443.652 126.416H448.932V137.048C448.932 138.32 448.26 138.968 446.916 139.016H445.356L444.78 136.904C445.284 136.976 445.764 137.024 446.22 137.024C446.556 137.024 446.724 136.784 446.724 136.328V135.152H443.388V139.088H441.252V130.784C440.82 131.312 440.388 131.768 439.956 132.152L438.804 130.688V138.152C439.188 138.632 439.692 139.016 440.292 139.328C440.94 139.568 441.684 139.736 442.548 139.808C443.388 139.832 444.228 139.856 445.068 139.856ZM443.388 131.816V133.184H446.724V131.816H443.388ZM446.724 129.848V128.336H443.388V129.848H446.724ZM452.148 124.712H455.436V120.296H457.932V124.712H460.62V127.136H457.932V128.024C458.988 129.056 460.068 130.208 461.148 131.456L459.684 133.664C459.012 132.464 458.436 131.432 457.932 130.592V142.4H455.436V131.528C454.692 133.496 453.78 135.32 452.7 137L451.62 134.264C453.3 132.2 454.524 129.824 455.316 127.136H452.148V124.712ZM459.132 140.864C460.092 139.424 460.788 137.888 461.172 136.304C461.484 134.936 461.652 132.896 461.652 130.184V121.04H470.1V139.256C470.1 139.472 470.172 139.592 470.34 139.592H471.06C471.252 139.592 471.396 139.544 471.492 139.448C471.588 139.352 471.636 139.208 471.684 139.04C471.78 138.704 471.828 137.24 471.828 134.696L474.132 135.416C474.132 137.24 474.06 138.632 473.964 139.544C473.868 140.456 473.628 141.08 473.244 141.464C472.86 141.776 472.236 141.944 471.396 141.944H470.316C468.468 141.944 467.556 141.128 467.556 139.544V123.392H464.148V130.184C464.148 132.896 463.932 135.2 463.5 137.12C463.092 139.04 462.324 140.912 461.196 142.688L459.132 140.864ZM485.676 135.056H488.172V139.376H493.212V135.512H495.684V142.52H493.212V141.68H478.356V135.56H480.828V139.376H485.676V135.056ZM496.908 121.736V125.936H494.508V123.92H479.196V126.008H476.796V121.736H485.292C485.1 121.352 484.884 120.992 484.644 120.656L487.356 120.224C487.548 120.68 487.764 121.184 487.956 121.736H496.908ZM486.228 124.064C487.164 125.144 487.908 126.08 488.436 126.872L486.636 128.12C486.084 127.256 485.34 126.272 484.428 125.192L486.228 124.064ZM491.532 124.664L493.38 126.056C491.364 128.432 488.82 130.448 485.772 132.08H489.684C490.116 132.08 490.404 131.984 490.596 131.816C490.836 131.6 490.98 130.976 491.076 129.92L493.308 130.664C493.116 132.44 492.756 133.496 492.276 133.832C491.796 134.168 491.1 134.336 490.14 134.336H484.74C483.78 134.336 483.108 134.048 482.724 133.52C480.948 134.24 479.052 134.888 477.036 135.416L476.052 133.232C478.332 132.656 480.42 131.96 482.316 131.144V126.848H484.644V130.04C487.428 128.552 489.708 126.752 491.532 124.664ZM494.004 127.136C495.588 128.816 496.836 130.304 497.7 131.576L495.708 132.944C494.82 131.6 493.644 130.088 492.18 128.456L494.004 127.136ZM479.676 125.72L481.932 126.176C481.308 128.384 480.42 130.304 479.268 131.912L477.132 130.568C478.332 129.032 479.196 127.424 479.676 125.72ZM508.284 128.48V141.248H505.98V140.144H504.108V141.704H501.804V132.944C501.468 133.472 501.132 133.976 500.796 134.48L499.548 132.44C501.156 129.872 502.236 126.992 502.812 123.776H500.268V121.376H508.668V123.776H505.164C504.852 125.432 504.444 126.992 503.916 128.48H508.284ZM504.108 137.864H505.98V130.736H504.108V137.864ZM510.78 124.712L513.228 124.856L512.244 130.52H516.636L517.692 123.392H509.532V121.04H520.404L519.156 130.52H521.556C521.556 136.568 521.196 140.072 520.5 141.008C519.78 141.92 518.292 142.4 516.036 142.4C515.364 142.4 514.692 142.352 513.972 142.28L513.252 139.856C514.308 140 515.052 140.072 515.46 140.072C517.236 140.072 518.292 139.712 518.628 139.016C518.988 138.296 519.18 136.256 519.18 132.848H509.484L510.78 124.712ZM509.028 135.176H518.004V137.528H509.028V135.176ZM532.86 124.184V141.008H530.46V139.808H526.908V141.704H524.508V124.184H526.812C527.244 122.912 527.556 121.592 527.748 120.224L530.268 120.56C530.004 121.856 529.644 123.08 529.212 124.184H532.86ZM526.908 137.504H530.46V132.968H526.908V137.504ZM526.908 130.736H530.46V126.536H526.908V130.736ZM537.228 130.016C538.764 131.96 539.94 133.664 540.78 135.152L538.764 136.544C537.876 134.96 536.676 133.208 535.188 131.288L537.228 130.016ZM545.22 124.184C545.22 132.584 545.1 137.768 544.86 139.736C544.62 141.416 543.468 142.256 541.404 142.256C540.924 142.256 540.06 142.208 538.812 142.112L538.212 139.832C539.268 139.904 540.204 139.952 540.996 139.952C541.86 139.952 542.364 139.472 542.508 138.536C542.652 137.384 542.724 133.424 542.772 126.632H536.964C536.316 128.072 535.548 129.368 534.66 130.52L533.148 128.528C534.732 126.272 535.788 123.488 536.364 120.2L538.836 120.512C538.596 121.808 538.284 123.032 537.924 124.184H545.22ZM557.604 124.304H549.636V121.904H568.14V124.304H560.148V138.656H569.604V141.08H548.124V138.656H557.604V124.304ZM590.436 121.016V135.656H593.604V137.984H588.156C590.052 138.68 591.804 139.472 593.436 140.336L592.044 142.52C589.716 141.104 587.34 140 584.94 139.184L585.756 137.984H579.492L580.668 139.016C578.82 140.36 576.54 141.536 573.828 142.568L572.292 140.552C574.452 139.784 576.324 138.944 577.908 137.984H572.1V135.656H575.268V121.016H590.436ZM577.788 135.656H587.916V134.048H577.788V135.656ZM577.788 132.08H587.916V130.448H577.788V132.08ZM577.788 128.48H587.916V126.824H577.788V128.48ZM577.788 124.88H587.916V123.368H577.788V124.88ZM599.508 136.376C600.156 136.376 600.708 136.64 601.14 137.168C601.548 137.696 601.764 138.392 601.764 139.232C601.764 140.504 601.38 141.608 600.66 142.568C599.916 143.504 598.908 144.152 597.66 144.512V142.928C598.308 142.688 598.86 142.304 599.316 141.776C599.724 141.2 599.94 140.648 599.94 140.072C599.796 140.12 599.604 140.168 599.34 140.168C598.812 140.168 598.38 139.976 598.02 139.616C597.66 139.256 597.492 138.8 597.492 138.272C597.492 137.696 597.684 137.24 598.068 136.904C598.428 136.544 598.908 136.376 599.508 136.376ZM621.876 121.28H639.444V123.728H631.044V125.12C630.996 126.416 630.924 127.616 630.78 128.744H641.34V131.168H634.164V138.608C634.164 139.376 634.524 139.784 635.244 139.784H637.812C638.244 139.784 638.58 139.592 638.796 139.256C639.06 138.92 639.228 137.84 639.324 136.016L641.676 136.808C641.46 139.4 641.076 140.936 640.548 141.416C640.068 141.872 639.3 142.112 638.292 142.112H634.476C632.604 142.112 631.668 141.104 631.668 139.112V131.168H630.372C629.94 133.208 629.34 134.984 628.548 136.472C627.06 139.112 624.66 141.128 621.348 142.52L619.932 140.288C623.244 138.776 625.452 136.88 626.604 134.624C627.084 133.568 627.468 132.416 627.78 131.168H620.34V128.744H628.212C628.356 127.592 628.452 126.392 628.5 125.12V123.728H621.876V121.28ZM657.156 120.248H659.388C660.708 123.128 663.012 125.648 666.276 127.808L664.884 129.92C661.908 127.928 659.724 125.48 658.284 122.6C656.556 125.816 654.396 128.312 651.804 130.088L650.412 127.952C653.34 125.984 655.572 123.416 657.156 120.248ZM661.788 142.088H656.508C654.612 142.088 653.676 141.08 653.676 139.064V128.864H656.172V132.656C658.332 131.84 660.396 130.712 662.364 129.296L663.804 131.312C661.092 132.992 658.548 134.264 656.172 135.128V138.536C656.172 139.352 656.532 139.76 657.276 139.76H661.332C661.908 139.76 662.316 139.568 662.58 139.232C662.916 138.872 663.156 137.768 663.252 135.896L665.628 136.688C665.388 139.328 664.98 140.888 664.356 141.368C663.78 141.848 662.94 142.088 661.788 142.088ZM647.004 120.44C648.54 121.616 649.836 122.792 650.892 123.944L649.164 125.696C648.252 124.592 646.932 123.416 645.228 122.168L647.004 120.44ZM643.74 127.376H649.332V137.384C650.028 136.76 650.772 136.088 651.564 135.32L652.212 137.816C650.628 139.304 648.972 140.648 647.196 141.848L646.26 139.616C646.668 139.256 646.884 138.824 646.884 138.296V129.776H643.74V127.376ZM675.372 131.192H680.532V127.064H683.076V131.192H688.572V133.64H683.076V139.256H689.604V141.704H674.508V139.256H680.532V133.64H675.372V131.192ZM671.172 133.592C670.524 134.216 669.852 134.816 669.156 135.416L667.548 133.328C670.236 131.096 672.396 128.552 674.004 125.72H668.412V123.272H675.204C675.66 122.216 676.044 121.136 676.38 120.032L678.972 120.344C678.684 121.352 678.348 122.312 677.988 123.272H689.604V125.72H676.884C675.972 127.544 674.892 129.248 673.644 130.832V142.568H671.172V133.592ZM698.964 121.568H713.892V123.992H712.236V139.784C712.236 141.536 711.372 142.424 709.668 142.424H705.612L705.06 139.976C706.38 140.072 707.628 140.144 708.804 140.144C709.38 140.144 709.692 139.808 709.692 139.136V123.992H698.964V121.568ZM699.3 126.872H707.436V136.304H699.3V126.872ZM705.012 134.048V129.128H701.724V134.048H705.012ZM696.636 120.08L698.892 121.136C698.364 122.912 697.668 124.592 696.804 126.176V142.544H694.332V130.016C693.708 130.808 693.06 131.6 692.364 132.368L691.524 129.68C693.828 126.968 695.532 123.776 696.636 120.08ZM720.276 120.296L722.724 120.728C722.532 121.784 722.34 122.768 722.1 123.728H727.332V125.96C726.78 130.04 725.628 133.472 723.876 136.232C724.308 136.856 724.788 137.36 725.268 137.696C726.996 138.968 729.78 139.64 733.572 139.688C734.988 139.688 736.452 139.616 737.964 139.496L737.46 142.112H734.772C729.708 142.112 726.06 141.248 723.852 139.568C723.348 139.184 722.892 138.704 722.46 138.152C721.02 139.856 719.292 141.248 717.324 142.352L715.98 139.952C717.948 138.872 719.604 137.48 720.948 135.752C720.3 134.456 719.7 132.92 719.172 131.168C718.62 132.08 718.02 132.896 717.372 133.664L715.668 131.504C717.948 128.72 719.484 125 720.276 120.296ZM720.612 128.288C721.188 130.376 721.788 132.128 722.412 133.544C723.564 131.432 724.404 128.936 724.884 126.104H721.428C721.164 126.872 720.9 127.592 720.612 128.288ZM729.804 120.392H732.324V126.488C734.244 127.832 736.188 129.368 738.156 131.096L736.668 133.352C734.988 131.576 733.524 130.184 732.324 129.128V138.152H729.804V120.392ZM743.508 136.376C744.156 136.376 744.708 136.64 745.14 137.168C745.548 137.696 745.764 138.392 745.764 139.232C745.764 140.504 745.38 141.608 744.66 142.568C743.916 143.504 742.908 144.152 741.66 144.512V142.928C742.308 142.688 742.86 142.304 743.316 141.776C743.724 141.2 743.94 140.648 743.94 140.072C743.796 140.12 743.604 140.168 743.34 140.168C742.812 140.168 742.38 139.976 742.02 139.616C741.66 139.256 741.492 138.8 741.492 138.272C741.492 137.696 741.684 137.24 742.068 136.904C742.428 136.544 742.908 136.376 743.508 136.376ZM773.676 135.056H776.172V139.376H781.212V135.512H783.684V142.52H781.212V141.68H766.356V135.56H768.828V139.376H773.676V135.056ZM784.908 121.736V125.936H782.508V123.92H767.196V126.008H764.796V121.736H773.292C773.1 121.352 772.884 120.992 772.644 120.656L775.356 120.224C775.548 120.68 775.764 121.184 775.956 121.736H784.908ZM774.228 124.064C775.164 125.144 775.908 126.08 776.436 126.872L774.636 128.12C774.084 127.256 773.34 126.272 772.428 125.192L774.228 124.064ZM779.532 124.664L781.38 126.056C779.364 128.432 776.82 130.448 773.772 132.08H777.684C778.116 132.08 778.404 131.984 778.596 131.816C778.836 131.6 778.98 130.976 779.076 129.92L781.308 130.664C781.116 132.44 780.756 133.496 780.276 133.832C779.796 134.168 779.1 134.336 778.14 134.336H772.74C771.78 134.336 771.108 134.048 770.724 133.52C768.948 134.24 767.052 134.888 765.036 135.416L764.052 133.232C766.332 132.656 768.42 131.96 770.316 131.144V126.848H772.644V130.04C775.428 128.552 777.708 126.752 779.532 124.664ZM782.004 127.136C783.588 128.816 784.836 130.304 785.7 131.576L783.708 132.944C782.82 131.6 781.644 130.088 780.18 128.456L782.004 127.136ZM767.676 125.72L769.932 126.176C769.308 128.384 768.42 130.304 767.268 131.912L765.132 130.568C766.332 129.032 767.196 127.424 767.676 125.72ZM796.284 128.48V141.248H793.98V140.144H792.108V141.704H789.804V132.944C789.468 133.472 789.132 133.976 788.796 134.48L787.548 132.44C789.156 129.872 790.236 126.992 790.812 123.776H788.268V121.376H796.668V123.776H793.164C792.852 125.432 792.444 126.992 791.916 128.48H796.284ZM792.108 137.864H793.98V130.736H792.108V137.864ZM798.78 124.712L801.228 124.856L800.244 130.52H804.636L805.692 123.392H797.532V121.04H808.404L807.156 130.52H809.556C809.556 136.568 809.196 140.072 808.5 141.008C807.78 141.92 806.292 142.4 804.036 142.4C803.364 142.4 802.692 142.352 801.972 142.28L801.252 139.856C802.308 140 803.052 140.072 803.46 140.072C805.236 140.072 806.292 139.712 806.628 139.016C806.988 138.296 807.18 136.256 807.18 132.848H797.484L798.78 124.712ZM797.028 135.176H806.004V137.528H797.028V135.176ZM814.932 121.448H830.772V132.968H814.932V121.448ZM828.3 130.592V123.848H817.404V130.592H828.3ZM827.652 133.832C830.196 136.616 832.164 139.064 833.532 141.152L831.372 142.664C829.98 140.384 828.06 137.864 825.612 135.104L827.652 133.832ZM818.1 133.88L820.308 134.936C818.676 137.912 816.732 140.504 814.5 142.712L812.268 141.08C814.524 139.088 816.468 136.688 818.1 133.88ZM841.884 129.44H847.5V128.648C845.604 128.696 843.588 128.72 841.452 128.72L840.852 126.92C846.564 126.92 851.388 126.728 855.372 126.344L856.404 128.096C854.532 128.288 852.348 128.456 849.852 128.576V129.44H855.564V134.024H849.852V134.912H857.196V140.048C857.196 141.632 856.428 142.424 854.916 142.424H852.468L851.916 140.336L852.468 140.36C852.372 140.12 852.324 139.928 852.276 139.76C849.828 140.144 847.236 140.456 844.5 140.72L843.996 138.68C845.172 138.608 846.348 138.536 847.5 138.44V136.88H843.036V142.496H840.732V134.912H847.5V134.024H841.884V129.44ZM849.708 136.88V138.248L851.652 138.032C851.484 137.624 851.316 137.24 851.148 136.88H849.708ZM853.332 132.272V131.216H849.852V132.272H853.332ZM847.5 132.272V131.216H844.14V132.272H847.5ZM853.044 140.384L854.244 140.432C854.7 140.432 854.94 140.144 854.94 139.568V136.88H853.044C853.476 137.84 853.884 138.848 854.244 139.856L853.044 140.384ZM854.34 122.984H840.348V124.16H854.34V122.984ZM840.348 125.984V128.336C840.324 133.688 839.412 138.272 837.588 142.112L835.716 140.408C837.156 137.288 837.9 133.28 837.924 128.336V121.04H856.716V125.984H840.348ZM861.636 121.04H879.9V123.488H872.316V129.056H881.556V131.552H872.316V139.616C872.316 141.344 871.404 142.232 869.58 142.232H865.74L865.212 139.808C866.436 139.904 867.612 139.952 868.716 139.952C869.436 139.952 869.796 139.616 869.796 138.968V131.552H860.148V129.056H869.796V123.488H861.636V121.04ZM886.428 130.112C885.78 130.88 885.108 131.648 884.388 132.392L883.548 129.704C886.02 126.992 887.844 123.8 889.044 120.128L891.372 121.232C890.748 123.104 889.932 124.88 888.924 126.56V142.496H886.428V130.112ZM902.868 129.848C903.996 132.632 904.98 135.632 905.796 138.8L903.588 139.784C902.724 136.328 901.74 133.256 900.66 130.592L902.868 129.848ZM894.3 125.36C893.58 127.112 892.764 128.72 891.852 130.16L889.692 128.816C891.468 126.152 892.716 123.32 893.436 120.32L895.788 120.824C895.596 121.544 895.38 122.264 895.164 122.96H905.172V124.592C904.812 126.032 904.356 127.448 903.804 128.864L901.404 128.168C901.884 127.352 902.268 126.416 902.604 125.36H894.3ZM896.964 142.328H893.916L893.364 139.976C894.324 140.072 895.26 140.144 896.124 140.144C896.7 140.144 896.988 139.832 896.988 139.232V127.016H899.412V139.832C899.412 141.488 898.596 142.328 896.964 142.328ZM893.052 130.112L895.308 130.736C894.468 134.024 893.388 136.904 892.092 139.376L889.74 138.536C890.988 136.328 892.092 133.52 893.052 130.112ZM912.852 136.352C913.764 136.352 914.556 136.664 915.228 137.288C915.876 137.912 916.212 138.68 916.212 139.592C916.212 140.504 915.876 141.272 915.228 141.896C914.556 142.52 913.764 142.832 912.852 142.832C911.916 142.832 911.124 142.52 910.476 141.92C909.804 141.296 909.492 140.504 909.492 139.592C909.492 138.656 909.804 137.888 910.476 137.264C911.124 136.64 911.916 136.352 912.852 136.352ZM912.852 138.032C912.42 138.032 912.036 138.176 911.724 138.488C911.388 138.776 911.244 139.16 911.244 139.592C911.244 140.024 911.388 140.384 911.724 140.696C912.036 140.984 912.42 141.152 912.852 141.152C913.284 141.152 913.644 140.984 913.98 140.696C914.292 140.384 914.46 140.024 914.46 139.592C914.46 139.16 914.292 138.776 913.98 138.488C913.644 138.176 913.284 138.032 912.852 138.032Z" fill="white" fill-opacity="0.9"/>
<defs>
<linearGradient id="paint0_linear_722_7461" x1="338" y1="30" x2="353.112" y2="144.597" gradientUnits="userSpaceOnUse">
<stop offset="0.065" stop-color="#A73EE7"/>
<stop offset="0.85902" stop-color="#00EBFF"/>
</linearGradient>
</defs>
</svg>
